<svg width="36" height="38" viewBox="0 0 36 38" fill="none" xmlns="http://www.w3.org/2000/svg">
<g clip-path="url(#clip0_1_1434)">
<path d="M5.25098 8.0973C4.05014 8.0973 3.07021 7.0978 3.07021 5.86653C3.07021 4.63525 4.05014 3.63576 5.25098 3.63576C6.45181 3.63576 7.43175 4.63525 7.43175 5.86653C7.43175 7.0978 6.45181 8.0973 5.25098 8.0973ZM5.25098 5.03063C4.79731 5.03063 4.43175 5.40654 4.43175 5.86653C4.43175 6.32652 4.79731 6.70243 5.25098 6.70243C5.70464 6.70243 6.07021 6.32652 6.07021 5.86653C6.07021 5.40654 5.70464 5.03063 5.25098 5.03063Z" fill="#198155" stroke="white" stroke-width="0.138462"/>
<path d="M5.25 15.8333C5.004 15.8333 4.773 15.7091 4.632 15.5021C4.158 14.8014 0 8.5684 0 5.86667C0 2.90733 2.355 0.5 5.25 0.5C8.145 0.5 10.5 2.90733 10.5 5.86667C10.5 8.5684 6.342 14.8014 5.868 15.5021C5.727 15.7091 5.496 15.8333 5.25 15.8333ZM5.25 2.03333C3.183 2.03333 1.5 3.75373 1.5 5.86667C1.5 7.3494 3.597 11.1137 5.25 13.6928C6.903 11.1137 9 7.3494 9 5.86667C9 3.75373 7.317 2.03333 5.25 2.03333Z" fill="#198155"/>
<path d="M29.251 26.5667C27.184 26.5667 25.501 24.8463 25.501 22.7334C25.501 20.6204 27.184 18.9 29.251 18.9C31.318 18.9 33.001 20.6204 33.001 22.7334C33.001 24.8463 31.318 26.5667 29.251 26.5667ZM29.251 20.4334C28.0105 20.4334 27.001 21.4653 27.001 22.7334C27.001 24.0014 28.0105 25.0334 29.251 25.0334C30.4915 25.0334 31.501 24.0014 31.501 22.7334C31.501 21.4653 30.4915 20.4334 29.251 20.4334Z" fill="#198155"/>
<path d="M29.25 37.3C28.9845 37.3 28.7385 37.1559 28.6035 36.9228C27.9795 35.8388 22.5 26.2278 22.5 22.7334C22.5 18.9292 25.5285 15.8334 29.25 15.8334C32.9715 15.8334 36 18.9292 36 22.7334C36 26.2278 30.5205 35.8388 29.8965 36.9228C29.7615 37.1559 29.5155 37.3 29.25 37.3ZM29.25 17.3667C26.355 17.3667 24 19.774 24 22.7334C24 25.0456 27.348 31.5684 29.25 34.9985C31.152 31.5684 34.5 25.0456 34.5 22.7334C34.5 19.774 32.145 17.3667 29.25 17.3667Z" fill="#198155"/>
<path d="M26.251 37.3001C25.108 37.3001 24.0595 37.2035 23.134 37.0118C22.7275 36.9275 22.4665 36.5227 22.5475 36.1072C22.63 35.6916 23.0185 35.4279 23.4325 35.5076C24.2605 35.6794 25.2085 35.7668 26.251 35.7668C26.665 35.7668 27.001 36.1102 27.001 36.5334C27.001 36.9566 26.665 37.3001 26.251 37.3001ZM20.5195 35.9416C20.3815 35.9416 20.242 35.9032 20.116 35.8204C19.162 35.1979 18.4195 34.3929 17.8465 33.3625C17.641 32.9945 17.7685 32.5268 18.1285 32.3168C18.4885 32.1067 18.946 32.237 19.1515 32.605C19.6015 33.4146 20.1805 34.0433 20.9245 34.5278C21.274 34.7548 21.376 35.2301 21.1525 35.5858C21.01 35.8158 20.767 35.9416 20.5195 35.9416ZM17.5075 30.8739C17.158 30.8739 16.846 30.6224 16.774 30.2606C16.555 29.1627 16.4485 28.0066 16.3795 27.1234C16.3465 26.7017 16.6555 26.3322 17.068 26.2984C17.479 26.2616 17.842 26.5806 17.875 27.0022C17.9395 27.8425 18.0415 28.9373 18.244 29.9554C18.3265 30.371 18.064 30.7758 17.659 30.8586C17.608 30.8693 17.5585 30.8739 17.5075 30.8739ZM16.912 24.7636C16.5265 24.7636 16.198 24.4615 16.165 24.0613C16.063 22.83 15.94 21.9254 15.7615 21.128C15.6685 20.7156 15.922 20.3046 16.3255 20.2096C16.7245 20.113 17.131 20.3736 17.224 20.7876C17.4175 21.657 17.551 22.6276 17.659 23.931C17.6935 24.3526 17.3875 24.7237 16.975 24.759C16.954 24.762 16.933 24.7636 16.912 24.7636ZM15.4 18.897C15.154 18.897 14.9125 18.7728 14.77 18.5459C14.29 17.7869 13.672 17.2088 12.88 16.778C12.514 16.5786 12.376 16.114 12.5695 15.7414C12.7645 15.3688 13.219 15.2278 13.5835 15.424C14.5915 15.973 15.415 16.7427 16.0285 17.7133C16.2535 18.0675 16.153 18.5428 15.8065 18.7728C15.6805 18.8572 15.5395 18.897 15.4 18.897ZM10.4005 15.9776C10.366 15.9776 10.33 15.976 10.2925 15.9699C9.66998 15.8794 8.96348 15.8534 8.25098 15.8334C7.83698 15.8334 7.50098 15.49 7.50098 15.0668C7.50098 14.6374 7.85498 14.2664 8.26748 14.3001C9.06398 14.3001 9.81698 14.3507 10.5055 14.4519C10.915 14.5132 11.2 14.9012 11.1415 15.3198C11.0875 15.7031 10.7665 15.9776 10.4005 15.9776Z" fill="#198155"/>
</g>
<defs>
<clipPath id="clip0_1_1434">
<rect width="36" height="37" fill="white" transform="translate(0 0.5)"/>
</clipPath>
</defs>
</svg>
