<svg width="150" height="125" viewBox="0 0 150 125" fill="none" xmlns="http://www.w3.org/2000/svg">
<path d="M37.8363 118.953C37.6708 118.961 37.5069 118.918 37.3669 118.83C37.2269 118.742 37.1176 118.614 37.0536 118.462C36.9897 118.311 36.9743 118.144 37.0096 117.983C37.0448 117.823 37.129 117.677 37.2506 117.566C37.271 117.485 37.2856 117.428 37.306 117.348C37.1476 116.949 36.8726 116.606 36.5164 116.363C36.1601 116.121 35.7388 115.989 35.3064 115.985C34.8739 115.981 34.4502 116.105 34.0893 116.341C33.7285 116.577 33.4471 116.914 33.2811 117.31C32.3234 119.531 31.0839 121.83 31.7004 124.276C27.6287 115.727 29.0134 105.093 35.0307 97.7815C36.694 96.8738 38.0421 95.2611 38.393 93.3885C37.5699 93.6648 36.5436 93.0015 37.1625 92.1424C37.4307 91.8141 37.7016 91.4884 37.9699 91.1601C34.843 87.8609 31.1173 93.046 34.5591 97.4989C33.4332 98.8974 32.458 100.409 31.6493 102.008C31.836 100.31 31.6131 98.5917 30.9989 96.9954C30.3764 95.5076 29.2096 94.2546 28.1821 92.9685C26.9328 91.4013 24.3616 92.1243 24.1935 94.113C25.3465 94.4885 25.4962 96.1384 24.1774 96.3642C24.5228 100.064 26.9625 103.464 30.3227 105.086C29.0818 108.536 28.5973 112.207 28.9014 115.857C28.3083 111.592 23.687 110.557 20.457 108.862C20.2514 108.731 20.0119 108.662 19.7677 108.664C19.5234 108.666 19.2851 108.739 19.0816 108.873C18.8782 109.006 18.7185 109.196 18.622 109.418C18.5254 109.641 18.4963 109.886 18.5381 110.124C18.9839 110.304 19.4106 110.527 19.8119 110.79C20 110.915 20.1443 111.095 20.2251 111.305C20.306 111.514 20.3194 111.744 20.2635 111.961C20.2076 112.179 20.0852 112.374 19.913 112.52C19.7408 112.666 19.5273 112.755 19.3017 112.776C20.9298 116.769 25.1392 119.449 29.4626 119.434C29.878 121.223 30.48 122.964 31.2588 124.629H37.6755C37.6985 124.559 37.7192 124.486 37.7399 124.415C37.1459 124.452 36.5497 124.417 35.9644 124.31C37.5357 122.467 38.751 121.527 37.8365 118.953L37.8363 118.953Z" fill="#F2F2F2"/>
<path d="M95.0421 118.953C95.2076 118.961 95.3715 118.918 95.5115 118.83C95.6515 118.742 95.7608 118.614 95.8248 118.462C95.8887 118.311 95.9041 118.144 95.8688 117.983C95.8336 117.823 95.7494 117.677 95.6278 117.566C95.6074 117.485 95.5928 117.428 95.5724 117.348C95.7308 116.949 96.0058 116.606 96.362 116.363C96.7183 116.121 97.1396 115.989 97.572 115.985C98.0045 115.981 98.4282 116.105 98.7891 116.341C99.1499 116.577 99.4313 116.914 99.5973 117.31C100.555 119.531 101.794 121.83 101.178 124.276C105.25 115.727 103.865 105.093 97.8477 97.7814C96.1844 96.8737 94.8363 95.261 94.4854 93.3884C95.3085 93.6647 96.3348 93.0014 95.7159 92.1424C95.4476 91.8141 95.1768 91.4883 94.9085 91.16C98.0354 87.8608 101.761 93.046 98.3193 97.4988C99.4452 98.8974 100.42 100.409 101.229 102.008C101.042 100.31 101.265 98.5917 101.879 96.9953C102.502 95.5076 103.669 94.2546 104.696 92.9684C105.946 91.4013 108.517 92.1243 108.685 94.113C107.532 94.4884 107.382 96.1383 108.701 96.3641C108.356 100.064 105.916 103.464 102.556 105.086C103.797 108.536 104.281 112.207 103.977 115.857C104.57 111.592 109.191 110.557 112.421 108.862C112.627 108.731 112.867 108.662 113.111 108.664C113.355 108.666 113.593 108.739 113.797 108.872C114 109.006 114.16 109.196 114.256 109.418C114.353 109.64 114.382 109.886 114.34 110.124C113.894 110.304 113.468 110.527 113.066 110.79C112.878 110.915 112.734 111.095 112.653 111.305C112.572 111.514 112.559 111.744 112.615 111.961C112.671 112.179 112.793 112.374 112.965 112.52C113.138 112.666 113.351 112.755 113.577 112.776C111.949 116.768 107.739 119.449 103.416 119.434C103 121.223 102.398 122.964 101.62 124.629H95.2029C95.1799 124.558 95.1592 124.486 95.1385 124.415C95.7325 124.452 96.3287 124.417 96.9141 124.31C95.3427 122.467 94.1276 121.526 95.0421 118.953Z" fill="#F2F2F2"/>
<path d="M97.4215 119.897L94.6582 120.52L90.918 110.257L94.9965 109.337L97.4215 119.897Z" fill="#FFB6B6"/>
<path d="M98.1751 122.731L89.6773 124.647L89.6529 124.54C89.4533 123.671 89.6104 122.759 90.0895 122.005C90.5686 121.25 91.3306 120.716 92.2078 120.518L93.4922 119.001L96.6563 119.515L97.3981 119.348L98.1751 122.731Z" fill="#2F2E41"/>
<path d="M141.999 69.8701L143.518 72.2401L135.014 79.1737L132.771 75.6755L141.999 69.8701Z" fill="#FFB6B6"/>
<path d="M144.441 68.2163L149.113 75.5047L149.02 75.5633C148.26 76.041 147.341 76.2004 146.463 76.0063C145.585 75.8121 144.82 75.2804 144.338 74.5281L142.465 73.8381L141.892 70.7126L141.484 70.0764L144.441 68.2163Z" fill="#2F2E41"/>
<path d="M53.913 44.5304L53.2305 40.6111L63.6069 35.9691L65.8478 32.0385C65.7754 31.6936 65.8007 31.3356 65.9208 31.004C66.0409 30.6724 66.2512 30.3802 66.5285 30.1596C66.8057 29.939 67.1391 29.7986 67.4918 29.7539C67.8445 29.7093 68.2028 29.762 68.5272 29.9065C68.8515 30.0509 69.1293 30.2813 69.3297 30.5723C69.5302 30.8632 69.6456 31.2034 69.6631 31.5553C69.6807 31.9072 69.5997 32.257 69.4292 32.5661C69.2586 32.8752 69.0052 33.1317 68.6968 33.307L65.0105 38.9532L53.913 44.5304Z" fill="#A0616A"/>
<path d="M50.7578 41.3264L55.4306 38.9617L56.6676 43.5631L53.4218 45.9467L50.7578 41.3264Z" fill="#23C16B"/>
<path d="M40.2731 119.541L43.0984 119.54L44.4425 108.744L40.2725 108.744L40.2731 119.541Z" fill="#A0616A"/>
<path d="M44.0386 119.793V117.895L43.2958 117.94L40.2722 118.117L39.5724 118.16L39.0374 124.515L39.0088 124.856H41.015L41.0794 124.518L41.3708 122.98L42.1231 124.518L42.2879 124.856H47.6067C47.9232 124.854 48.2261 124.729 48.4497 124.507C48.6733 124.285 48.7994 123.984 48.8008 123.671C49.0253 122.632 44.6022 120.387 44.0386 119.793Z" fill="#2F2E41"/>
<path d="M6.7348 76.6933L6.07617 79.4155L16.3604 83.2277L17.3323 79.2103L6.7348 76.6933Z" fill="#A0616A"/>
<path d="M5.83341 80.2624L7.69604 80.7049L7.82509 79.9788L8.35589 77.0245L8.47725 76.3404L2.36382 74.3432L2.03606 74.2361L1.5683 76.1689L1.88538 76.3099L3.32705 76.9492L1.64203 77.3154L1.27149 77.3953L0.0313773 82.5193C-0.0404699 82.8247 0.0121798 83.1458 0.177904 83.413C0.343628 83.6801 0.609039 83.8717 0.916502 83.9461C1.88373 84.4046 5.11905 80.6669 5.83341 80.2624Z" fill="#2F2E41"/>
<path d="M44.6418 49.6656L41.0051 47.9814L33.7528 56.6764L29.3353 57.7832C29.0185 57.6232 28.6632 57.5531 28.3087 57.5806C27.9542 57.6081 27.6143 57.7322 27.3265 57.9391C27.0386 58.146 26.8141 58.4276 26.6778 58.753C26.5414 59.0783 26.4985 59.4347 26.5537 59.7827C26.6089 60.1307 26.7602 60.4568 26.9907 60.725C27.2213 60.9932 27.5222 61.1931 27.8602 61.3025C28.1982 61.4119 28.5601 61.4266 28.9061 61.345C29.252 61.2635 29.5684 61.0887 29.8204 60.8402L36.289 58.8036L44.6418 49.6656Z" fill="#A0616A"/>
<path d="M96.1993 17.4778C95.4285 17.4778 94.6749 17.2514 94.034 16.8271C93.393 16.4028 92.8934 15.7997 92.5984 15.0941C92.3034 14.3886 92.2263 13.6122 92.3767 12.8632C92.527 12.1141 92.8982 11.4261 93.4433 10.8861C93.9884 10.346 94.6829 9.97829 95.439 9.8293C96.195 9.68031 96.9787 9.75678 97.6909 10.049C98.4031 10.3413 99.0118 10.8362 99.4401 11.4712C99.8683 12.1062 100.097 12.8528 100.097 13.6165C100.096 14.6402 99.6848 15.6217 98.9541 16.3456C98.2234 17.0695 97.2327 17.4767 96.1993 17.4778ZM96.1993 10.1982C95.5169 10.1982 94.8499 10.3987 94.2825 10.7743C93.7151 11.1499 93.2728 11.6838 93.0117 12.3084C92.7505 12.933 92.6822 13.6203 92.8153 14.2833C92.9485 14.9464 93.2771 15.5555 93.7596 16.0335C94.2421 16.5116 94.8569 16.8371 95.5262 16.969C96.1955 17.1009 96.8893 17.0332 97.5197 16.7745C98.1502 16.5158 98.689 16.0777 99.0682 15.5155C99.4473 14.9534 99.6496 14.2925 99.6496 13.6165C99.6486 12.7102 99.2848 11.8414 98.6379 11.2005C97.9911 10.5597 97.1141 10.1993 96.1993 10.1982Z" fill="#E6E6E6"/>
<path d="M95.925 15.0714C95.9172 15.0714 95.9094 15.0711 95.9015 15.0707C95.8323 15.0674 95.7647 15.0493 95.7032 15.0177C95.6417 14.986 95.5879 14.9416 95.5454 14.8874L94.9314 14.1054C94.8926 14.056 94.8641 13.9996 94.8473 13.9393C94.8306 13.879 94.826 13.816 94.8338 13.7539C94.8416 13.6919 94.8617 13.6319 94.8929 13.5776C94.9241 13.5232 94.9658 13.4755 95.0157 13.4371L95.0378 13.42C95.0876 13.3816 95.1446 13.3533 95.2054 13.3367C95.2663 13.3201 95.3299 13.3155 95.3926 13.3233C95.4553 13.331 95.5158 13.3509 95.5706 13.3819C95.6255 13.4128 95.6737 13.4542 95.7125 13.5036C95.7435 13.543 95.7827 13.5754 95.8275 13.5984C95.8723 13.6214 95.9216 13.6346 95.972 13.637C96.0224 13.6395 96.0728 13.6311 96.1196 13.6125C96.1665 13.5939 96.2087 13.5655 96.2434 13.5292L97.49 12.2253C97.5778 12.1338 97.6986 12.0804 97.826 12.077C97.9534 12.0735 98.077 12.1203 98.1697 12.207L98.1901 12.2263C98.2359 12.2693 98.2728 12.3209 98.2985 12.378C98.3242 12.4351 98.3384 12.4967 98.3401 12.5592C98.3418 12.6217 98.331 12.684 98.3084 12.7424C98.2858 12.8008 98.2519 12.8542 98.2084 12.8996L96.2739 14.9226C96.229 14.9696 96.1749 15.007 96.1149 15.0326C96.0549 15.0582 95.9903 15.0714 95.925 15.0714Z" fill="#E6E6E6"/>
<path d="M76.7433 64.2279C75.9724 64.2279 75.2189 64.0015 74.5779 63.5772C73.937 63.1529 73.4374 62.5498 73.1424 61.8443C72.8474 61.1387 72.7702 60.3623 72.9206 59.6133C73.071 58.8642 73.4422 58.1762 73.9873 57.6362C74.5324 57.0962 75.2269 56.7284 75.9829 56.5794C76.739 56.4304 77.5226 56.5069 78.2348 56.7992C78.947 57.0914 79.5557 57.5863 79.984 58.2213C80.4123 58.8563 80.6409 59.6029 80.6409 60.3666C80.6397 61.3903 80.2287 62.3718 79.498 63.0957C78.7673 63.8196 77.7766 64.2268 76.7433 64.2279ZM76.7433 56.9484C76.0609 56.9484 75.3938 57.1488 74.8264 57.5244C74.259 57.9 73.8168 58.4339 73.5556 59.0585C73.2945 59.6831 73.2262 60.3704 73.3593 61.0334C73.4924 61.6965 73.821 62.3056 74.3036 62.7836C74.7861 63.2617 75.4009 63.5872 76.0702 63.7191C76.7395 63.851 77.4332 63.7833 78.0637 63.5246C78.6941 63.2659 79.233 62.8278 79.6121 62.2656C79.9912 61.7035 80.1936 61.0426 80.1936 60.3666C80.1925 59.4603 79.8287 58.5915 79.1819 57.9507C78.535 57.3098 77.658 56.9494 76.7433 56.9484Z" fill="#E6E6E6"/>
<path d="M76.468 61.8212C76.4602 61.8212 76.4523 61.821 76.4445 61.8206C76.3753 61.8173 76.3077 61.7992 76.2462 61.7675C76.1847 61.7359 76.1309 61.6915 76.0884 61.6373L75.4744 60.8553C75.4356 60.8059 75.407 60.7495 75.3903 60.6892C75.3735 60.6289 75.3689 60.5659 75.3768 60.5038C75.3846 60.4417 75.4047 60.3818 75.4359 60.3274C75.4671 60.2731 75.5088 60.2253 75.5586 60.1869L75.5807 60.1699C75.6306 60.1315 75.6875 60.1031 75.7484 60.0865C75.8093 60.0699 75.8729 60.0654 75.9356 60.0731C75.9982 60.0809 76.0587 60.1008 76.1136 60.1317C76.1685 60.1627 76.2167 60.204 76.2554 60.2534C76.2865 60.2929 76.3257 60.3252 76.3705 60.3483C76.4153 60.3713 76.4646 60.3845 76.515 60.3869C76.5654 60.3894 76.6157 60.381 76.6626 60.3624C76.7094 60.3437 76.7517 60.3153 76.7864 60.279L78.033 58.9752C78.1208 58.8836 78.2416 58.8303 78.369 58.8268C78.4964 58.8234 78.62 58.8702 78.7126 58.9569L78.7331 58.9762C78.7789 59.0192 78.8157 59.0707 78.8415 59.1278C78.8672 59.185 78.8813 59.2465 78.883 59.3091C78.8847 59.3716 78.874 59.4338 78.8514 59.4922C78.8288 59.5506 78.7948 59.6041 78.7514 59.6495L76.8168 61.6725C76.772 61.7195 76.7179 61.7569 76.6579 61.7825C76.5979 61.808 76.5333 61.8212 76.468 61.8212Z" fill="#E6E6E6"/>
<path d="M34.0275 12.1603C33.2566 12.1603 32.503 11.9339 31.8621 11.5096C31.2211 11.0853 30.7216 10.4822 30.4266 9.77664C30.1316 9.07107 30.0544 8.29469 30.2048 7.54566C30.3552 6.79663 30.7264 6.1086 31.2715 5.56858C31.8165 5.02856 32.511 4.66079 33.2671 4.5118C34.0231 4.36281 34.8068 4.43928 35.519 4.73154C36.2312 5.0238 36.8399 5.51871 37.2682 6.15371C37.6965 6.78871 37.9251 7.53526 37.9251 8.29897C37.9239 9.32271 37.5129 10.3042 36.7822 11.0281C36.0515 11.752 35.0608 12.1592 34.0275 12.1603ZM34.0275 4.88074C33.3451 4.88074 32.678 5.08122 32.1106 5.45682C31.5432 5.83242 31.101 6.36627 30.8398 6.99087C30.5787 7.61547 30.5103 8.30276 30.6435 8.96583C30.7766 9.62891 31.1052 10.238 31.5877 10.716C32.0703 11.1941 32.6851 11.5196 33.3543 11.6515C34.0236 11.7834 34.7174 11.7157 35.3478 11.457C35.9783 11.1983 36.5172 10.7602 36.8963 10.198C37.2754 9.63591 37.4778 8.97503 37.4778 8.29897C37.4767 7.39271 37.1129 6.52387 36.4661 5.88305C35.8192 5.24223 34.9422 4.88177 34.0275 4.88074Z" fill="#E6E6E6"/>
<path d="M33.7522 9.75373C33.7444 9.75373 33.7365 9.75348 33.7287 9.7531C33.6595 9.74979 33.5918 9.73169 33.5304 9.70005C33.4689 9.66841 33.415 9.62396 33.3725 9.56977L32.7586 8.78776C32.7198 8.7384 32.6912 8.68196 32.6745 8.62166C32.6577 8.56135 32.6531 8.49837 32.6609 8.43631C32.6688 8.37424 32.6888 8.31431 32.7201 8.25994C32.7513 8.20557 32.793 8.15783 32.8428 8.11943L32.8649 8.1024C32.9147 8.06396 32.9717 8.03563 33.0326 8.01903C33.0935 8.00242 33.1571 7.99788 33.2197 8.00563C33.2824 8.01339 33.3429 8.03331 33.3978 8.06424C33.4527 8.09518 33.5009 8.13653 33.5396 8.18593C33.5706 8.22538 33.6099 8.25772 33.6547 8.28076C33.6995 8.3038 33.7488 8.31699 33.7992 8.31942C33.8496 8.32185 33.8999 8.31347 33.9468 8.29485C33.9936 8.27624 34.0358 8.24782 34.0706 8.21154L35.3172 6.90769C35.4049 6.81612 35.5258 6.76278 35.6532 6.75935C35.7806 6.75592 35.9042 6.80268 35.9968 6.8894L36.0173 6.9087C36.0631 6.95171 36.0999 7.00324 36.1257 7.06035C36.1514 7.11746 36.1655 7.17904 36.1672 7.24156C36.1689 7.30408 36.1582 7.36633 36.1356 7.42473C36.113 7.48314 36.079 7.53656 36.0356 7.58195L34.101 9.60498C34.0561 9.65197 34.0021 9.6894 33.9421 9.71497C33.8821 9.74055 33.8175 9.75374 33.7522 9.75373Z" fill="#E6E6E6"/>
<path d="M65.2318 78.5849C56.1938 78.5849 45.8068 68.6486 36.617 73.3696C8.79246 87.6635 12.6227 63.7448 4.62891 54.8493L4.89134 54.3278C13.7115 62.163 24.7238 68.5378 36.7378 72.763C47.5947 76.5815 58.5329 78.3508 68.3661 77.8839L68.3831 78.5107C67.3447 78.5603 66.2943 78.5851 65.2318 78.5849Z" fill="#F2F2F2"/>
<path d="M52.8335 11.4044C53.8769 11.4044 54.7227 10.2808 54.7227 8.89465C54.7227 7.50855 53.8769 6.3849 52.8335 6.3849C51.7902 6.3849 50.9443 7.50855 50.9443 8.89465C50.9443 10.2808 51.7902 11.4044 52.8335 11.4044Z" fill="#E6E6E6"/>
<path d="M74.6536 50.5572C73.7898 51.1273 72.9059 49.7703 73.7862 49.2255C74.6498 48.6554 75.5338 50.0124 74.6536 50.5572Z" fill="#E6E6E6"/>
<path d="M69.6827 4.87441C71.0414 4.87441 72.1428 3.78324 72.1428 2.43721C72.1428 1.09118 71.0414 0 69.6827 0C68.3241 0 67.2227 1.09118 67.2227 2.43721C67.2227 3.78324 68.3241 4.87441 69.6827 4.87441Z" fill="#FF6584"/>
<path d="M64.1572 65.1383C65.4791 65.1383 66.5507 64.0766 66.5507 62.767C66.5507 61.4574 65.4791 60.3958 64.1572 60.3958C62.8353 60.3958 61.7637 61.4574 61.7637 62.767C61.7637 64.0766 62.8353 65.1383 64.1572 65.1383Z" fill="#F2F2F2"/>
<path d="M40.9757 63.6716C40.9757 63.6716 35.0088 67.5209 36.5866 70.0787C36.641 70.167 29.4591 79.5641 29.4591 79.5641L15.9015 78.7115L15.4238 83.207L27.4938 86.6703C27.4938 86.6703 30.4466 88.8195 32.7277 86.4515C35.0088 84.0836 42.6069 76.8322 42.6069 76.8322L42.9734 91.4725L39.1592 111.759L44.8543 111.402L50.3973 91.0488L52.4434 67.9941L40.9757 63.6716Z" fill="#2F2E41"/>
<path d="M45.2254 40.5694L42.7162 42.4533L39.8562 48.5006L42.6063 52.2009C42.6063 52.2009 44.9197 56.1728 41.2168 60.0193C37.514 63.8658 34.6707 67.9741 37.6344 67.8274C40.5981 67.6807 52.6017 73.7292 52.6807 68.7739C52.7597 63.8185 52.9195 60.0193 52.9195 60.0193L56.0666 52.1115C56.0666 52.1115 57.9415 47.394 56.6251 45.9819C55.3087 44.5698 53.5462 42.7653 53.5462 42.7653L50.3409 39.5899H47.4468L45.2254 40.5694Z" fill="#23C16B"/>
<path d="M49.9095 28.9502C55.5387 32.1237 50.9174 40.4969 45.1833 37.5152C39.5543 34.3419 44.1756 25.9687 49.9095 28.9502Z" fill="#A0616A"/>
<path d="M52.9193 30.7098C52.5249 31.218 51.7008 30.9797 50.0871 31.3424C50.0906 30.8004 50.0274 30.2601 49.8989 29.7334C49.7788 30.3856 49.5157 31.0037 49.1281 31.5441C47.7268 31.6981 49.4446 35.9155 48.7271 39.0163C47.8027 32.4746 45.8583 34.1885 46.8406 35.486C47.4694 36.3167 47.0502 38.8087 45.1637 37.5627C42.051 39.0282 37.6177 31.7481 42.5312 28.3338C42.4434 26.4883 44.5161 26.1967 45.7925 26.7642C48.8901 24.4781 52.4291 27.4073 52.9193 30.7098Z" fill="#2F2E41"/>
<path d="M38.4769 25.9364C37.2236 33.5703 30.5062 24.5325 27.3477 32.045C26.3547 34.7655 28.0585 36.7118 29.1363 38.97C29.3822 40.8258 26.9453 41.7674 26.69 43.4757C26.619 47.3921 32.9967 47.1524 34.7797 44.6815C36.6117 42.0949 34.424 38.6245 35.5252 35.8481C37.0729 31.9935 43.3669 31.9648 43.9152 27.4803C42.8533 25.9821 39.9978 24.2662 38.4769 25.9364Z" fill="#2F2E41"/>
<path d="M43.5528 26.6824C43.5118 26.6995 43.4708 26.7166 43.4341 26.7358H43.4319C43.3974 26.7529 43.3629 26.77 43.3284 26.7893C43.324 26.7914 43.3219 26.7936 43.3176 26.7957C43.2723 26.7529 43.2269 26.7102 43.1795 26.6674C43.1672 26.7371 43.1701 26.8085 43.1881 26.8769L43.1946 26.9026C43.2377 26.9475 43.283 26.9902 43.3305 27.0351C43.3737 27.0031 43.4147 26.9689 43.4578 26.9368C43.4837 26.9154 43.5096 26.894 43.5377 26.8726C43.542 26.8171 43.5485 26.7529 43.5549 26.6824L43.5528 26.6824ZM44.8518 24.3051C43.8894 24.087 43.5787 25.3334 43.4859 25.9341C43.1363 23.7535 41.6819 24.4398 42.1847 25.9277C42.3449 26.3682 42.5971 26.7703 42.9248 27.1078C42.9702 27.1591 43.0198 27.2104 43.0716 27.2617C43.0133 27.561 43.3068 27.4841 43.7038 27.2083C43.997 27.0017 44.2682 26.766 44.513 26.5049C45.305 25.6819 45.9221 24.5809 44.8518 24.3051ZM44.882 25.5322C44.5851 25.9115 44.252 26.2616 43.8873 26.5776C43.7729 26.6802 43.6564 26.7786 43.5377 26.8726C43.5355 26.8919 43.5355 26.909 43.5334 26.924C43.525 26.9447 43.5149 26.9647 43.5031 26.9838C43.3823 27.1997 43.2464 27.0821 43.1946 26.9026C43.1903 26.8962 43.1838 26.8897 43.1795 26.8833C43.007 26.7069 42.857 26.5101 42.7328 26.2976C41.8416 24.7669 43.2766 23.7258 43.2054 26.584C43.1922 26.6103 43.1835 26.6384 43.1795 26.6674C43.1672 26.7371 43.1701 26.8085 43.1881 26.8769L43.1946 26.9026C43.2377 26.9475 43.283 26.9902 43.3305 27.0351C43.3737 27.0031 43.4147 26.9689 43.4578 26.9368C43.4837 26.9154 43.5096 26.894 43.5377 26.8726C43.542 26.8171 43.5485 26.7529 43.5549 26.6824V26.6802C43.611 26.1073 43.7643 25.0769 44.047 24.7968C44.6684 24.3243 45.4733 24.8353 44.882 25.5322ZM43.5528 26.6824C43.5118 26.6995 43.4708 26.7166 43.4341 26.7358H43.4319C43.3974 26.7529 43.3629 26.77 43.3284 26.7893C43.324 26.7914 43.3219 26.7936 43.3176 26.7957C43.2723 26.7529 43.2269 26.7102 43.1795 26.6674C43.1672 26.7371 43.1701 26.8085 43.1881 26.8769L43.1946 26.9026C43.2377 26.9475 43.283 26.9902 43.3305 27.0351C43.3737 27.0031 43.4147 26.9689 43.4578 26.9368C43.4837 26.9154 43.5096 26.894 43.5377 26.8726C43.542 26.8171 43.5485 26.7529 43.5549 26.6824L43.5528 26.6824Z" fill="#2F2E41"/>
<path d="M95.5817 68.7707L93.5027 74.1421L83.75 93.2011L92.3196 115.372L96.7424 114.216L93.0971 93.2011L103.555 80.6118L115.976 88.9574C115.976 88.9574 121.484 93.2177 123.58 89.179C125.675 85.1402 139.235 76.5498 139.235 76.5498L135.88 73.0048L120.265 80.2441L109.488 65.216L95.5817 68.7707Z" fill="#2F2E41"/>
<path d="M106.072 43.4338L102.65 39.7911L96.7792 38.9909L89.5859 43.9798L89.6584 49.5019L93.2143 62.5142C93.2143 62.5142 91.8599 71.8628 95.643 71.7691C99.4262 71.6753 101.488 69.8067 103.029 70.1871C104.57 70.5675 111.12 72.1863 111.535 70.4907C111.95 68.795 114.157 70.0091 114.06 68.405C113.963 66.8009 108.087 55.2382 108.087 55.2382L109.548 43.6744L106.072 43.4338Z" fill="#23C16B"/>
<path d="M127.742 26.6657C127.772 26.9678 127.736 27.2729 127.634 27.5594C127.533 27.846 127.37 28.1071 127.156 28.3243C126.941 28.5415 126.682 28.7096 126.395 28.8166C126.108 28.9237 125.801 28.9672 125.496 28.944L117.626 43.7725L115.513 40.559L123.557 26.5641C123.63 26.0581 123.888 25.5964 124.283 25.2664C124.677 24.9363 125.179 24.761 125.695 24.7735C126.211 24.786 126.704 24.9856 127.081 25.3343C127.458 25.6831 127.693 26.1568 127.742 26.6657Z" fill="#FFB6B6"/>
<path d="M102.965 46.1911C102.965 46.1911 102.653 48.8288 105.65 49.4818C108.648 50.1348 116.952 45.434 118.313 44.716C118.739 44.4912 119.318 43.3892 119.911 41.9814C120.178 41.3494 120.447 40.6558 120.707 39.9522C120.858 39.5451 121.579 39.4339 121.72 39.0302C121.862 38.6286 121.424 37.9343 121.551 37.5559C122.158 35.7595 122.587 34.3343 122.587 34.3343L120.601 30.6374C117.823 32.0926 116.398 35.2979 115.349 38.9907L102.965 46.1911Z" fill="#23C16B"/>
<path d="M67.9603 30.071C68.007 30.3711 68.1195 30.6574 68.2899 30.9097C68.4603 31.1621 68.6845 31.3743 68.9467 31.5315C69.2089 31.6887 69.5026 31.7871 69.8073 31.8196C70.112 31.8522 70.4202 31.8182 70.7102 31.72L82.0757 44.1254L83.3096 40.4903L71.9861 28.9352C71.7873 28.4635 71.4207 28.0804 70.9559 27.8586C70.491 27.6367 69.9602 27.5916 69.464 27.7316C68.9677 27.8716 68.5406 28.1871 68.2634 28.6182C67.9863 29.0494 67.8784 29.5663 67.9603 30.071Z" fill="#FFB6B6"/>
<path d="M96.8805 42.8321C96.8805 42.8321 97.849 45.3084 95.1121 46.6838C92.3751 48.0591 83.148 45.5667 81.6486 45.2091C81.1791 45.0972 80.3407 44.1736 79.4105 42.9578C78.9928 42.412 78.5567 41.8072 78.1271 41.1905C77.8785 40.8336 77.1526 40.9048 76.9133 40.549C76.6753 40.1952 76.9238 39.4145 76.7045 39.0797C75.6636 37.4908 74.8877 36.2175 74.8877 36.2175L75.8772 32.1457C78.9347 32.8658 81.124 35.6158 83.0716 38.9312L96.8805 42.8321Z" fill="#23C16B"/>
<path d="M99.8318 38.0643C102.917 38.0643 105.418 35.5868 105.418 32.5305C105.418 29.4743 102.917 26.9967 99.8318 26.9967C96.7469 26.9967 94.2461 29.4743 94.2461 32.5305C94.2461 35.5868 96.7469 38.0643 99.8318 38.0643Z" fill="#FFB6B6"/>
<path d="M106.208 29.362C105.62 28.4614 104.518 27.8612 103.449 28.0299C103.349 27.3541 103.065 26.7182 102.626 26.1917C102.187 25.6651 101.61 25.2679 100.959 25.0433C100.308 24.8188 99.6073 24.7756 98.9332 24.9183C98.259 25.061 97.6373 25.3842 97.1357 25.8527C96.9708 25.7376 96.7787 25.6667 96.5779 25.6468C96.3772 25.6269 96.1747 25.6587 95.99 25.7391C95.6221 25.9048 95.3021 26.1593 95.0592 26.4793C94.4458 27.2371 94.0514 28.1454 93.9178 29.1077C93.7842 30.0699 93.9164 31.0501 94.3005 31.9438C94.1699 31.4733 94.6458 31.0307 95.1267 30.9251C95.6075 30.8195 96.1119 30.9194 96.5995 30.8506C97.2245 30.7625 97.7863 30.4033 98.4123 30.3225C98.9431 30.2883 99.4756 30.3561 99.9804 30.5221C100.485 30.6882 101.017 30.7589 101.548 30.7307C102.075 30.6687 102.753 32.6467 102.744 34.0399C102.743 34.304 102.797 34.6429 103.058 34.699C103.379 34.768 103.565 34.3294 103.87 34.2099C104.01 34.17 104.161 34.1857 104.291 34.2537C104.42 34.3218 104.517 34.4369 104.563 34.5748C104.601 34.715 104.605 34.8623 104.575 35.0044C104.544 35.1465 104.48 35.2793 104.387 35.3917C104.199 35.6147 103.976 35.8061 103.727 35.9587L103.853 36.0623C103.972 36.1872 104.132 36.2671 104.304 36.2883C104.476 36.3095 104.651 36.2707 104.797 36.1785C105.085 35.9851 105.319 35.7218 105.475 35.4136C106.064 34.5109 106.486 33.511 106.719 32.4611C106.916 31.4067 106.795 30.2625 106.208 29.362Z" fill="#2F2E41"/>
<path d="M147.532 51.1876C140.327 56.5937 125.991 54.8859 121.543 64.1462C108.073 92.1841 96.5496 70.826 84.7561 68.5163L84.6475 67.9436C96.4536 68.9137 109.117 67.4085 121.269 63.5904C132.251 60.1403 142.049 55.008 149.603 48.7541L149.999 49.2435C149.201 49.9043 148.379 50.5523 147.532 51.1876Z" fill="#F2F2F2"/>
<path d="M117.07 124.622C116.898 125.126 18.9264 125.126 18.7412 124.623C18.9126 124.119 116.885 124.119 117.07 124.622Z" fill="#CCCCCC"/>
</svg>
