<svg width="25" height="24" viewBox="0 0 25 24" fill="none" xmlns="http://www.w3.org/2000/svg">
<path d="M18.6039 6.25001H18.811L20.6713 6.25001C20.6713 6.25001 20.6714 6.25001 20.6715 6.25001C20.7878 6.24977 20.8993 6.20351 20.9815 6.12135C20.9815 6.12133 20.9816 6.1213 20.9816 6.12128L22.382 4.72171L20.5399 4.3533L20.213 4.28792L20.1477 3.96102L19.779 2.11705L18.3787 3.51739C18.2964 3.59981 18.2501 3.71151 18.25 3.82801L18.6039 6.25001ZM18.6039 6.25001L18.4575 6.39637M18.6039 6.25001L18.4575 6.39637M18.4575 6.39637L13.8915 10.9604L13.6599 11.1918M18.4575 6.39637L13.6599 11.1918M13.6599 11.1918L13.7795 11.4966M13.6599 11.1918L13.7795 11.4966M13.7795 11.4966C13.8948 11.7905 13.9054 12.1151 13.8096 12.4158C13.7137 12.7166 13.5172 12.9752 13.2531 13.1481C12.989 13.321 12.6734 13.3977 12.3594 13.3653C12.0454 13.3328 11.7521 13.1933 11.5289 12.9701C11.3057 12.7469 11.1661 12.4536 11.1337 12.1396C11.1013 11.8256 11.178 11.51 11.3509 11.2459C11.5238 10.9818 11.7824 10.7853 12.0831 10.6894C12.3839 10.5935 12.7085 10.6042 13.0023 10.7195L13.3071 10.839M13.7795 11.4966L13.3071 10.839M13.3071 10.839L13.5385 10.6076M13.3071 10.839L13.5385 10.6076M13.5385 10.6076L18.1035 6.04256L18.25 5.89611M13.5385 10.6076L18.25 5.89611M18.25 5.89611V5.68901M18.25 5.89611V5.68901M18.25 5.68901V3.8282V5.68901ZM20.1097 1.78642C20.1093 1.7868 20.1089 1.78718 20.1085 1.78756L20.1097 1.78642Z" fill="white" stroke="white"/>
<path d="M3.125 12C3.125 14.4864 4.11272 16.871 5.87087 18.6291C7.62903 20.3873 10.0136 21.375 12.5 21.375C13.7311 21.375 14.9502 21.1325 16.0877 20.6614C17.2251 20.1902 18.2586 19.4997 19.1291 18.6291C19.9997 17.7586 20.6902 16.7251 21.1614 15.5877C21.6325 14.4502 21.875 13.2311 21.875 12C21.875 11.102 21.749 10.234 21.514 9.41301C21.4673 9.2245 21.4955 9.02522 21.5928 8.8571C21.69 8.68899 21.8487 8.56515 22.0353 8.51164C22.222 8.45813 22.4222 8.47913 22.5937 8.57021C22.7653 8.6613 22.8948 8.81537 22.955 9.00001C23.229 9.95401 23.375 10.96 23.375 12C23.375 18.006 18.506 22.875 12.5 22.875C6.494 22.875 1.625 18.006 1.625 12C1.625 5.99401 6.494 1.12501 12.5 1.12501C13.515 1.12401 14.524 1.26501 15.5 1.54401C15.5952 1.5707 15.6841 1.61594 15.7617 1.67713C15.8393 1.73831 15.9041 1.81423 15.9523 1.90053C16.0005 1.98683 16.0311 2.0818 16.0425 2.17998C16.0538 2.27816 16.0457 2.37762 16.0184 2.47264C15.9912 2.56765 15.9455 2.65635 15.8839 2.73364C15.8223 2.81092 15.746 2.87527 15.6595 2.92297C15.5729 2.97068 15.4778 3.00081 15.3795 3.01163C15.2813 3.02244 15.1819 3.01374 15.087 2.98601C14.2457 2.74586 13.3749 2.62436 12.5 2.62501C10.0136 2.62501 7.62903 3.61273 5.87087 5.37088C4.11272 7.12903 3.125 9.5136 3.125 12Z" fill="white"/>
<path d="M7.62499 12C7.62778 12.6623 7.76553 13.3171 8.02983 13.9244C8.29414 14.5318 8.67945 15.0788 9.16223 15.5322C9.64502 15.9857 10.2152 16.3359 10.8378 16.5617C11.4605 16.7874 12.1227 16.8838 12.7839 16.8451C13.4451 16.8064 14.0914 16.6333 14.6835 16.3365C15.2756 16.0396 15.8009 15.6252 16.2275 15.1185C16.6541 14.6118 16.9729 14.0235 17.1645 13.3895C17.3561 12.7555 17.4165 12.0891 17.342 11.431C17.321 11.2977 17.3364 11.1612 17.3867 11.036C17.4369 10.9108 17.5201 10.8015 17.6274 10.7197C17.7348 10.6379 17.8622 10.5867 17.9963 10.5714C18.1303 10.5561 18.266 10.5774 18.389 10.633C18.64 10.745 18.809 10.984 18.831 11.258C18.9863 12.5733 18.7279 13.9042 18.0919 15.0658C17.4558 16.2275 16.4737 17.1621 15.282 17.7399C14.0902 18.3176 12.7481 18.5097 11.4422 18.2894C10.1362 18.0692 8.93135 17.4476 7.99499 16.511C7.05888 15.5754 6.43711 14.3717 6.21591 13.0669C5.99471 11.762 6.18504 10.4207 6.76051 9.22885C7.33598 8.03703 8.26805 7.05382 9.42747 6.41559C10.5869 5.77736 11.9162 5.51573 13.231 5.667C13.3304 5.67623 13.4269 5.7052 13.515 5.75222C13.603 5.79924 13.6808 5.86337 13.7438 5.94084C13.8067 6.01831 13.8536 6.10757 13.8816 6.20338C13.9096 6.2992 13.9182 6.39964 13.9069 6.49882C13.8955 6.59799 13.8645 6.69392 13.8157 6.78096C13.7668 6.868 13.7011 6.94441 13.6223 7.00571C13.5435 7.06702 13.4533 7.11197 13.3569 7.13795C13.2605 7.16393 13.1599 7.17041 13.061 7.157C12.378 7.07804 11.6861 7.14441 11.0306 7.35174C10.375 7.55907 9.77078 7.90269 9.25743 8.36003C8.74409 8.81738 8.33327 9.37811 8.05193 10.0054C7.77059 10.6328 7.62509 11.3125 7.62499 12Z" fill="white"/>
</svg>
