<svg width="150" height="130" viewBox="0 0 150 130" fill="none" xmlns="http://www.w3.org/2000/svg">
<g clip-path="url(#clip0_1_1318)">
<path d="M150.001 30.8927H149.279V11.3251C149.279 8.32143 148.072 5.44083 145.923 3.31695C143.774 1.19306 140.86 -0.000122069 137.821 -0.000122069H95.8787C94.3741 -0.00014609 92.8842 0.292764 91.4941 0.861886C90.1039 1.43101 88.8408 2.26519 87.7769 3.31682C86.7129 4.36844 85.869 5.6169 85.2931 6.99093C84.7173 8.36495 84.4209 9.83763 84.4209 11.3249V118.675C84.4209 121.678 85.628 124.559 87.7768 126.683C89.9255 128.807 92.8398 130 95.8785 130H137.821C140.86 130 143.774 128.807 145.923 126.683C148.071 124.559 149.278 121.678 149.278 118.675V44.8213H150L150.001 30.8927Z" fill="#3F3D56"/>
<path d="M146.942 10.5664V119.433C146.942 121.71 146.027 123.894 144.398 125.505C142.769 127.115 140.559 128.02 138.255 128.021H95.4523C93.1475 128.021 90.9369 127.117 89.3068 125.506C87.6766 123.896 86.7605 121.711 86.7598 119.433V10.5664C86.7605 8.28832 87.6766 6.10375 89.3066 4.49323C90.9367 2.8827 93.1472 1.9781 95.452 1.97839H100.644C100.389 2.59811 100.292 3.27023 100.362 3.9357C100.431 4.60116 100.665 5.23959 101.042 5.79486C101.42 6.35014 101.929 6.80526 102.527 7.12022C103.124 7.43519 103.79 7.60035 104.467 7.6012H128.869C129.546 7.60035 130.213 7.43519 130.81 7.12022C131.407 6.80526 131.916 6.35014 132.294 5.79486C132.671 5.23959 132.905 4.60116 132.975 3.9357C133.044 3.27023 132.947 2.59811 132.692 1.97839H138.254C140.558 1.97878 142.767 2.88349 144.396 4.49362C146.026 6.10375 146.941 8.2875 146.942 10.5648V10.5664Z" fill="white"/>
<path d="M117.309 54.1199C112.436 54.1217 107.762 52.21 104.314 48.8053C100.867 45.4006 98.9288 40.7818 98.9265 35.9649V35.9488C98.9265 35.9107 98.9265 35.8707 98.9287 35.8326C98.9843 25.8821 107.231 17.7789 117.309 17.7789C122.185 17.7787 126.861 19.6928 130.308 23.1002C133.756 26.5075 135.693 31.1291 135.693 35.9481C135.693 40.7672 133.757 45.389 130.31 48.7967C126.862 52.2045 122.187 54.1191 117.311 54.1194H117.309V54.1199ZM117.309 18.1612C112.558 18.1717 108.003 20.035 104.634 23.3461C101.265 26.6573 99.3537 31.1489 99.3159 35.8449C99.3138 35.8855 99.3138 35.9181 99.3138 35.949C99.3134 39.4675 100.369 42.9071 102.346 45.8329C104.323 48.7587 107.134 51.0392 110.422 52.3861C113.711 53.733 117.33 54.0857 120.821 53.3997C124.312 52.7137 127.519 51.0198 130.037 48.5321C132.554 46.0444 134.269 42.8748 134.964 39.424C135.659 35.9731 135.303 32.3961 133.941 29.1453C132.579 25.8944 130.272 23.1157 127.313 21.1606C124.353 19.2054 120.874 18.1617 117.314 18.1612H117.309Z" fill="#E6E6E6"/>
<path d="M136.319 73.2236H98.2834C98.0967 73.2234 97.9176 73.15 97.7856 73.0195C97.6536 72.889 97.5793 72.712 97.5791 72.5275V63.2017C97.5793 63.0172 97.6536 62.8402 97.7857 62.7097C97.9177 62.5792 98.0967 62.5058 98.2834 62.5056H136.319C136.506 62.5058 136.685 62.5792 136.817 62.7097C136.949 62.8402 137.023 63.0172 137.023 63.2017V72.5276C137.023 72.7122 136.949 72.8891 136.817 73.0196C136.685 73.1502 136.506 73.2236 136.319 73.2238V73.2236ZM98.2834 62.784C98.1713 62.784 98.0639 62.8281 97.9847 62.9064C97.9054 62.9848 97.8608 63.091 97.8607 63.2017V72.5276C97.8608 72.6384 97.9054 72.7446 97.9847 72.823C98.0639 72.9013 98.1713 72.9453 98.2834 72.9454H136.319C136.431 72.9453 136.538 72.9013 136.618 72.823C136.697 72.7446 136.742 72.6384 136.742 72.5276V63.2017C136.742 63.091 136.697 62.9848 136.618 62.9064C136.538 62.8281 136.431 62.784 136.319 62.784H98.2834Z" fill="#E6E6E6"/>
<path d="M110.046 65.9153C109.915 65.9153 109.79 65.9666 109.697 66.058C109.605 66.1494 109.553 66.2734 109.553 66.4027C109.553 66.5319 109.605 66.6559 109.697 66.7473C109.79 66.8387 109.915 66.89 110.046 66.89H133.29C133.354 66.8925 133.419 66.8823 133.48 66.8601C133.54 66.8379 133.596 66.8041 133.644 66.7606C133.691 66.7171 133.729 66.6647 133.757 66.6066C133.784 66.5484 133.799 66.4856 133.801 66.4216C133.804 66.3576 133.793 66.2938 133.771 66.2338C133.749 66.1737 133.714 66.1186 133.67 66.0717C133.626 66.0247 133.573 65.9868 133.515 65.96C133.456 65.9333 133.392 65.9183 133.327 65.9158C133.32 65.9155 133.313 65.9154 133.306 65.9155H110.046V65.9153Z" fill="#E6E6E6"/>
<path d="M110.046 68.8394C109.915 68.8394 109.79 68.8907 109.697 68.9821C109.605 69.0735 109.553 69.1975 109.553 69.3267C109.553 69.456 109.605 69.58 109.697 69.6714C109.79 69.7628 109.915 69.8141 110.046 69.8141H133.29C133.354 69.8166 133.419 69.8064 133.48 69.7842C133.54 69.762 133.596 69.7281 133.644 69.6846C133.691 69.6411 133.729 69.5888 133.757 69.5307C133.784 69.4725 133.799 69.4096 133.801 69.3457C133.804 69.2817 133.793 69.2179 133.771 69.1578C133.749 69.0978 133.714 69.0427 133.67 68.9958C133.626 68.9488 133.573 68.9109 133.515 68.8841C133.456 68.8574 133.392 68.8423 133.327 68.8399C133.32 68.8396 133.313 68.8395 133.306 68.8395L110.046 68.8394Z" fill="#E6E6E6"/>
<path d="M136.319 88.819H98.2834C98.0967 88.8188 97.9176 88.7454 97.7856 88.6149C97.6536 88.4844 97.5793 88.3074 97.5791 88.1229V78.7971C97.5793 78.6126 97.6536 78.4356 97.7857 78.3051C97.9177 78.1746 98.0967 78.1012 98.2834 78.101H136.319C136.506 78.1012 136.685 78.1746 136.817 78.3051C136.949 78.4356 137.023 78.6126 137.023 78.7971V88.123C137.023 88.3076 136.949 88.4845 136.817 88.6149C136.685 88.7454 136.506 88.8188 136.319 88.819ZM98.2834 78.3794C98.1713 78.3795 98.0639 78.4235 97.9847 78.5018C97.9054 78.5802 97.8608 78.6864 97.8607 78.7971V88.123C97.8608 88.2338 97.9054 88.34 97.9847 88.4184C98.0639 88.4967 98.1713 88.5407 98.2834 88.5408H136.319C136.431 88.5407 136.538 88.4967 136.618 88.4184C136.697 88.34 136.742 88.2338 136.742 88.123V78.7971C136.742 78.6864 136.697 78.5802 136.618 78.5018C136.538 78.4235 136.431 78.3795 136.319 78.3794H98.2834Z" fill="#E6E6E6"/>
<path d="M110.046 81.5099C109.915 81.5099 109.79 81.5612 109.697 81.6526C109.605 81.744 109.553 81.868 109.553 81.9973C109.553 82.1265 109.605 82.2505 109.697 82.3419C109.79 82.4333 109.915 82.4846 110.046 82.4846H133.29C133.418 82.4839 133.542 82.4333 133.634 82.3437C133.725 82.2541 133.778 82.1325 133.78 82.0051C133.782 81.8777 133.734 81.7546 133.645 81.662C133.556 81.5695 133.435 81.5149 133.306 81.5101L110.046 81.5099Z" fill="#E6E6E6"/>
<path d="M110.046 84.4347C109.915 84.4347 109.79 84.486 109.697 84.5774C109.605 84.6688 109.553 84.7928 109.553 84.9221C109.553 85.0513 109.605 85.1753 109.697 85.2667C109.79 85.3581 109.915 85.4094 110.046 85.4094H133.29C133.418 85.4087 133.542 85.3581 133.634 85.2685C133.725 85.1789 133.778 85.0573 133.78 84.9299C133.782 84.8025 133.734 84.6794 133.645 84.5868C133.556 84.4943 133.435 84.4398 133.306 84.4349L110.046 84.4347Z" fill="#E6E6E6"/>
<path d="M136.319 104.414H98.2834C98.0967 104.414 97.9176 104.34 97.7856 104.21C97.6536 104.079 97.5793 103.902 97.5791 103.718V94.392C97.5793 94.2074 97.6536 94.0305 97.7857 93.9C97.9177 93.7695 98.0967 93.696 98.2834 93.6958H136.319C136.506 93.696 136.685 93.7695 136.817 93.9C136.949 94.0305 137.023 94.2074 137.023 94.392V103.718C137.023 103.902 136.949 104.079 136.817 104.21C136.685 104.34 136.506 104.414 136.319 104.414V104.414ZM98.2834 93.9742C98.1713 93.9743 98.0639 94.0183 97.9847 94.0967C97.9054 94.175 97.8608 94.2812 97.8607 94.392V103.718C97.8608 103.829 97.9054 103.935 97.9847 104.013C98.0639 104.092 98.1713 104.136 98.2834 104.136H136.319C136.431 104.136 136.538 104.092 136.618 104.013C136.697 103.935 136.742 103.829 136.742 103.718V94.392C136.742 94.2812 136.697 94.175 136.618 94.0967C136.538 94.0183 136.431 93.9743 136.319 93.9742H98.2834Z" fill="#E6E6E6"/>
<path d="M110.046 97.1055C109.915 97.1055 109.79 97.1568 109.697 97.2482C109.605 97.3396 109.553 97.4636 109.553 97.5928C109.553 97.7221 109.605 97.8461 109.697 97.9375C109.79 98.0289 109.915 98.0802 110.046 98.0802H133.29C133.354 98.0827 133.419 98.0725 133.48 98.0503C133.54 98.0281 133.596 97.9942 133.644 97.9507C133.691 97.9072 133.729 97.8549 133.757 97.7968C133.784 97.7386 133.799 97.6757 133.801 97.6118C133.804 97.5478 133.793 97.484 133.771 97.4239C133.749 97.3639 133.714 97.3088 133.67 97.2619C133.626 97.2149 133.573 97.177 133.515 97.1502C133.456 97.1235 133.392 97.1084 133.327 97.106C133.32 97.1057 133.313 97.1056 133.306 97.1056L110.046 97.1055Z" fill="#E6E6E6"/>
<path d="M110.046 100.03C109.915 100.03 109.79 100.081 109.697 100.172C109.605 100.264 109.553 100.388 109.553 100.517C109.553 100.646 109.605 100.77 109.697 100.862C109.79 100.953 109.915 101.004 110.046 101.004H133.29C133.354 101.007 133.419 100.997 133.48 100.974C133.54 100.952 133.596 100.918 133.644 100.875C133.691 100.831 133.729 100.779 133.757 100.721C133.784 100.663 133.799 100.6 133.801 100.536C133.804 100.472 133.793 100.408 133.771 100.348C133.749 100.288 133.714 100.233 133.67 100.186C133.626 100.139 133.573 100.101 133.515 100.074C133.456 100.048 133.392 100.033 133.327 100.03C133.32 100.03 133.313 100.03 133.306 100.03L110.046 100.03Z" fill="#E6E6E6"/>
<path d="M123.118 35.508H117.757V30.2087H116.863V35.508H111.502V36.3911H116.863V41.6903H117.757V36.3911H123.118V35.508Z" fill="#23C16B"/>
<path d="M40.7911 102.146C40.7911 102.146 36.4075 106.891 35.7813 117.826C35.155 128.762 34.9463 130 34.9463 130H50.6019L53.5228 122.573L56.8634 129.999H71.6839C71.6839 129.999 73.3538 107.303 71.6839 106.684C70.0139 106.065 40.7911 102.146 40.7911 102.146Z" fill="#2F2E41"/>
<path d="M61.7694 46.3344C65.9195 46.3344 69.2839 43.0089 69.2839 38.9068C69.2839 34.8046 65.9195 31.4791 61.7694 31.4791C57.6192 31.4791 54.2549 34.8046 54.2549 38.9068C54.2549 43.0089 57.6192 46.3344 61.7694 46.3344Z" fill="#FFB8B8"/>
<path d="M94.2284 102.353L82.7478 81.7201L76.0674 70.9912L84.0001 67.4834L88.3837 75.9429C88.3837 75.9429 94.2284 84.4021 95.6895 91.4175C97.1505 98.4328 98.6118 101.734 98.6118 101.734L94.2284 102.353Z" fill="#FFB8B8"/>
<path d="M30.9798 96.3686L48.0964 81.5132L47.2624 69.5461H42.4613L40.9994 75.736L27.2227 93.6863L30.9798 96.3686Z" fill="#FFB8B8"/>
<path d="M53.1071 49.9457C53.1071 49.9457 59.3065 52.5145 63.9299 49.3732C63.9299 49.3732 75.2334 51.184 75.8596 51.8026C76.4858 52.4213 75.2334 70.9904 75.2334 70.9904L72.7288 81.5135C72.7288 81.5135 76.2774 97.6069 71.0589 101.733L72.1026 107.304C72.1026 107.304 48.9327 108.955 39.748 103.384L41.4176 97.8129L45.8012 80.2752L43.0875 55.9292C43.0875 55.9292 45.1742 50.3584 53.1071 49.9457Z" fill="#E4E4E4"/>
<path d="M70.5353 52.7308L75.9626 51.9062C75.9626 51.9062 78.6762 52.3189 81.1811 57.4771C83.686 62.6353 86.3996 69.4439 86.3996 69.4439L77.0065 73.5705L69.2832 61.6037L70.5353 52.7308Z" fill="#E4E4E4"/>
<path d="M44.3404 54.8975L43.0879 55.9291C43.0879 55.9291 41.418 61.9126 41.418 66.039V71.6098L48.9327 72.4352L44.3404 54.8975Z" fill="#E4E4E4"/>
<path d="M54.2575 40.9227C54.2575 40.9227 53.236 39.8324 53.3394 38.4675C53.4076 37.691 53.3573 36.9089 53.1904 36.1472C53.1904 36.1472 53.5102 33.9132 53.9823 32.6182C54.4544 31.3232 54.0563 30.8726 56.0856 30.1657C58.1149 29.4587 56.823 26.9023 62.8057 28.9402C63.0332 29.1673 63.3237 29.3227 63.6405 29.3867C63.9573 29.4508 64.2862 29.4207 64.5857 29.3001C65.6903 28.9003 66.356 30.4002 66.356 30.4002C66.356 30.4002 67.0449 29.8414 67.4315 30.4223C67.8181 31.0032 69.6879 29.6793 70.3739 33.9052C71.0598 38.1311 68.7058 41.8997 68.7058 41.8997C68.7058 41.8997 68.3755 35.1373 64.49 35.0146C60.6046 34.8918 56.2107 33.4373 55.6657 36.2849C55.1207 39.1325 54.2575 40.9227 54.2575 40.9227Z" fill="#2F2E41"/>
<path d="M28.2414 99.5288C30.0299 99.5288 31.4798 98.0957 31.4798 96.3278C31.4798 94.5599 30.0299 93.1268 28.2414 93.1268C26.4528 93.1268 25.0029 94.5599 25.0029 96.3278C25.0029 98.0957 26.4528 99.5288 28.2414 99.5288Z" fill="#FFB8B8"/>
<path d="M4.89472 117.948L58.2304 107.424L53.7732 85.3539L0.4375 95.8768L4.89472 117.948Z" fill="white"/>
<path d="M58.666 107.713L4.60267 118.38L0 95.5891L54.0633 84.922L58.666 107.713ZM5.18523 117.517L57.7933 107.137L53.4809 85.7848L0.873088 96.1651L5.18523 117.517Z" fill="#E4E4E4"/>
<path d="M22.2846 110.933L22.2628 110.942C22.0888 111.013 21.9125 111.079 21.7314 111.138C21.6706 111.159 21.6075 111.177 21.5463 111.196C21.4852 111.214 21.422 111.233 21.3587 111.25C21.2557 111.28 21.1502 111.306 21.0442 111.33C20.9988 111.341 20.951 111.351 20.9052 111.361L20.8777 111.367C20.8209 111.379 20.764 111.39 20.7068 111.401L20.5589 111.426C20.5314 111.432 20.5042 111.436 20.4774 111.439C19.3012 111.622 18.0985 111.538 16.9596 111.195C15.8208 110.852 14.7755 110.258 13.9024 109.458C13.0293 108.658 12.3511 107.672 11.9187 106.576C11.4864 105.479 11.3112 104.3 11.4063 103.127C11.5014 101.954 11.8643 100.818 12.4678 99.8033C13.0713 98.7889 13.8997 97.9229 14.8906 97.2705C15.8814 96.6181 17.0091 96.1962 18.1887 96.0366C19.3683 95.877 20.5691 95.9839 21.7009 96.3492C20.6766 97.2638 19.9135 98.4284 19.4881 99.7264C19.0626 101.024 18.9899 102.41 19.277 103.745C19.5642 105.079 20.2012 106.316 21.1242 107.33C22.0472 108.345 23.2237 109.102 24.5359 109.525C23.8724 110.118 23.1112 110.594 22.2851 110.933L22.2846 110.933Z" fill="#23C16B"/>
<path d="M33.5427 106.974C33.8869 107.144 34.2436 107.289 34.6097 107.407C33.5847 108.325 32.332 108.958 30.979 109.243L30.88 109.263C29.6988 109.498 28.479 109.461 27.3144 109.156C26.1497 108.852 25.0714 108.287 24.1623 107.505C23.2531 106.724 22.5375 105.747 22.0704 104.649C21.6033 103.551 21.3972 102.363 21.4679 101.174C21.5387 99.985 21.8844 98.8281 22.4785 97.7922C23.0726 96.7562 23.8992 95.8688 24.8948 95.1981C25.8903 94.5275 27.0282 94.0916 28.221 93.9239C29.4137 93.7562 30.6295 93.8612 31.7747 94.2309C30.8199 95.079 30.0898 96.1454 29.6481 97.3368C29.2064 98.5282 29.0667 99.8084 29.2411 101.066C29.4156 102.323 29.8988 103.518 30.6486 104.548C31.3985 105.578 32.3921 106.411 33.5427 106.974Z" fill="#23C16B"/>
<path d="M47.118 97.8922C47.442 99.3982 47.307 100.965 46.73 102.395C46.1529 103.825 45.1599 105.054 43.8763 105.926C42.5927 106.799 41.0763 107.275 39.5188 107.295C37.9613 107.316 36.4327 106.879 35.1263 106.041C33.8198 105.202 32.7943 104 32.1792 102.585C31.5642 101.171 31.3873 99.6078 31.671 98.0939C31.9547 96.58 32.6862 95.1833 33.7729 94.0804C34.8597 92.9774 36.2529 92.2178 37.7765 91.8975C38.7881 91.6848 39.8322 91.6712 40.8491 91.8574C41.866 92.0435 42.8359 92.4259 43.7033 92.9825C44.5708 93.5392 45.3188 94.2593 45.9047 95.1017C46.4906 95.9441 46.9028 96.8923 47.118 97.8922Z" fill="#23C16B"/>
<path d="M43.819 104.839C43.8935 105.183 43.9324 105.534 43.9352 105.887C43.068 106.487 42.0875 106.908 41.0521 107.126C40.0167 107.343 38.9476 107.353 37.9085 107.154C37.766 106.831 37.6569 106.494 37.5831 106.15C37.1977 104.358 37.795 102.651 38.9567 101.878C38.4039 101.774 37.9046 101.484 37.5436 101.057C37.1826 100.63 36.9821 100.093 36.9762 99.5366C36.9703 98.9804 37.1593 98.4392 37.5112 98.005C37.8631 97.5708 38.3561 97.2704 38.9066 97.1546C39.4571 97.0389 40.0312 97.115 40.5313 97.3701C41.0315 97.6252 41.427 98.0435 41.6506 98.554C41.8742 99.0645 41.9122 99.6358 41.7582 100.171C41.6042 100.706 41.2675 101.172 40.8055 101.489C42.1853 101.728 43.4337 103.048 43.819 104.839Z" fill="white"/>
<path d="M33.5431 106.974L33.5482 106.998C33.6144 107.43 33.6444 107.868 33.6379 108.305C32.8221 108.871 31.9102 109.034 30.8805 109.264L30.7815 109.285C29.7462 109.504 28.6769 109.513 27.6378 109.313C27.6237 109.283 27.6114 109.253 27.601 109.222C27.4755 108.927 27.3789 108.622 27.3126 108.309C26.9272 106.518 27.5245 104.81 28.6862 104.037C28.1334 103.933 27.634 103.643 27.2729 103.216C26.9119 102.789 26.7114 102.252 26.7055 101.696C26.6996 101.14 26.8886 100.598 27.2405 100.164C27.5925 99.7302 28.0856 99.4298 28.6361 99.3142C28.8227 99.2745 29.0134 99.2573 29.2042 99.2631C29.0517 100.832 29.3851 102.409 30.16 103.786C30.9349 105.163 32.1148 106.275 33.5434 106.974L33.5431 106.974Z" fill="white"/>
<path d="M23.6649 109.186C23.7274 109.496 23.76 109.811 23.7622 110.128C23.1389 110.56 22.4553 110.9 21.7328 111.138C21.6719 111.158 21.6089 111.177 21.5477 111.195C21.4866 111.214 21.4234 111.233 21.3601 111.25C21.2571 111.279 21.1516 111.305 21.0456 111.329C21.0239 111.336 21.0002 111.341 20.9781 111.345L20.8791 111.366C20.8223 111.378 20.7654 111.39 20.7082 111.4L20.5603 111.426C20.5328 111.432 20.5056 111.435 20.4788 111.439C19.5688 111.584 18.6401 111.569 17.7355 111.394C17.7331 111.391 17.7315 111.386 17.7309 111.382C17.7183 111.357 17.7076 111.33 17.6987 111.304C17.5732 111.009 17.4766 110.703 17.4102 110.39C17.0249 108.599 17.6222 106.891 18.7839 106.119C18.231 106.015 17.7317 105.724 17.3706 105.298C17.0095 104.871 16.809 104.334 16.8031 103.778C16.7972 103.221 16.9863 102.68 17.3382 102.246C17.6901 101.812 18.1832 101.511 18.7338 101.396C18.8659 101.368 19.0002 101.351 19.1351 101.345C18.971 102.956 19.3191 104.576 20.1312 105.982C20.9432 107.387 22.1785 108.507 23.665 109.185L23.6649 109.186Z" fill="white"/>
<path d="M104.807 69.2635C104.807 69.4397 104.789 69.6155 104.754 69.7881C104.266 69.9924 103.743 70.0977 103.213 70.0977C102.684 70.0977 102.16 69.9924 101.673 69.7881C101.637 69.6155 101.619 69.4397 101.619 69.2635C101.619 68.3478 102.091 67.5739 102.741 67.3153C102.481 67.2074 102.267 67.0142 102.136 66.7683C102.004 66.5224 101.963 66.2391 102.018 65.9664C102.074 65.6937 102.223 65.4484 102.441 65.2722C102.659 65.096 102.932 64.9998 103.213 64.9998C103.495 64.9998 103.767 65.096 103.985 65.2722C104.203 65.4484 104.352 65.6937 104.408 65.9664C104.464 66.2391 104.422 66.5224 104.29 66.7683C104.159 67.0142 103.945 67.2074 103.686 67.3153C104.336 67.5739 104.807 68.3478 104.807 69.2635Z" fill="#23C16B"/>
<path d="M104.807 85.1749C104.807 85.3511 104.789 85.5268 104.754 85.6995C104.266 85.9038 103.743 86.009 103.213 86.009C102.684 86.009 102.16 85.9038 101.673 85.6995C101.637 85.5268 101.619 85.3511 101.619 85.1749C101.619 84.2592 102.091 83.4853 102.741 83.2266C102.481 83.1188 102.267 82.9255 102.136 82.6797C102.004 82.4338 101.963 82.1505 102.018 81.8778C102.074 81.6051 102.223 81.3598 102.441 81.1836C102.659 81.0074 102.932 80.9111 103.213 80.9111C103.495 80.9111 103.767 81.0074 103.985 81.1836C104.203 81.3598 104.352 81.6051 104.408 81.8778C104.464 82.1505 104.422 82.4338 104.29 82.6797C104.159 82.9255 103.945 83.1188 103.686 83.2266C104.336 83.4853 104.807 84.2592 104.807 85.1749Z" fill="#23C16B"/>
<path d="M104.807 100.77C104.807 100.946 104.789 101.122 104.754 101.294C104.266 101.498 103.743 101.604 103.213 101.604C102.684 101.604 102.16 101.498 101.673 101.294C101.637 101.122 101.619 100.946 101.619 100.77C101.619 99.8539 102.091 99.08 102.741 98.8214C102.481 98.7135 102.267 98.5203 102.136 98.2744C102.004 98.0285 101.963 97.7452 102.018 97.4725C102.074 97.1998 102.223 96.9545 102.441 96.7783C102.659 96.6021 102.932 96.5059 103.213 96.5059C103.495 96.5059 103.767 96.6021 103.985 96.7783C104.203 96.9545 104.352 97.1998 104.408 97.4725C104.464 97.7452 104.422 98.0285 104.29 98.2744C104.159 98.5203 103.945 98.7135 103.686 98.8214C104.336 99.08 104.807 99.8539 104.807 100.77Z" fill="#23C16B"/>
<path d="M96.6171 106.114C98.2524 106.114 99.578 104.804 99.578 103.187C99.578 101.571 98.2524 100.261 96.6171 100.261C94.9819 100.261 93.6562 101.571 93.6562 103.187C93.6562 104.804 94.9819 106.114 96.6171 106.114Z" fill="#FFB8B8"/>
</g>
<defs>
<clipPath id="clip0_1_1318">
<rect width="150" height="130" fill="white"/>
</clipPath>
</defs>
</svg>
