<svg width="150" height="130" viewBox="0 0 150 130" fill="none" xmlns="http://www.w3.org/2000/svg">
<g clip-path="url(#clip0_1_1276)">
<path d="M81.8119 125.398C81.6917 125.403 81.5727 125.372 81.4711 125.308C81.3694 125.245 81.29 125.152 81.2436 125.042C81.1972 124.932 81.186 124.811 81.2116 124.695C81.2372 124.578 81.2983 124.473 81.3866 124.392L81.4269 124.234C81.4216 124.221 81.4162 124.208 81.4109 124.196C81.2898 123.913 81.0869 123.672 80.8277 123.502C80.5685 123.333 80.2645 123.243 79.954 123.245C79.6434 123.246 79.3401 123.338 79.0822 123.509C78.8243 123.68 78.6232 123.923 78.5042 124.206C78.0288 125.339 77.4236 126.474 77.2746 127.671C77.2089 128.201 77.2366 128.737 77.3564 129.257C76.2398 126.848 75.66 124.229 75.6563 121.578C75.656 120.913 75.6934 120.249 75.7682 119.588C75.83 119.046 75.9157 118.508 76.0254 117.974C76.6238 115.075 77.9087 112.359 79.7746 110.047C80.6777 109.56 81.408 108.81 81.8672 107.899C82.0335 107.572 82.1511 107.222 82.2162 106.862C82.1143 106.875 81.8321 105.34 81.9089 105.246C81.767 105.033 81.5128 104.927 81.3578 104.719C80.5867 103.685 79.5243 103.865 78.9696 105.271C77.7848 105.862 77.7734 106.843 78.5004 107.787C78.9629 108.387 79.0264 109.199 79.4322 109.842C79.3905 109.895 79.3471 109.946 79.3053 109.999C78.5421 110.97 77.8769 112.012 77.3193 113.112C77.4549 111.88 77.293 110.634 76.847 109.477C76.395 108.398 75.5477 107.49 74.8016 106.557C73.9055 105.437 72.0677 105.926 71.9098 107.346C71.9083 107.36 71.9068 107.373 71.9054 107.387C72.0162 107.449 72.1247 107.515 72.2308 107.584C72.3641 107.672 72.4675 107.798 72.5272 107.945C72.587 108.093 72.6004 108.254 72.5657 108.409C72.531 108.564 72.4499 108.705 72.3328 108.813C72.2158 108.922 72.0684 108.993 71.9099 109.017L71.8937 109.019C71.9332 109.415 72.0029 109.806 72.1024 110.191C71.1453 113.852 73.2117 115.186 76.1623 115.246C76.2274 115.279 76.2909 115.312 76.3561 115.344C75.7958 116.914 75.4443 118.55 75.3106 120.21C75.2348 121.19 75.2393 122.174 75.3239 123.153L75.3189 123.118C75.1051 122.03 74.5182 121.048 73.6572 120.338C72.3785 119.299 70.5718 118.916 69.1922 118.081C69.0456 117.987 68.8751 117.938 68.7009 117.937C68.5267 117.937 68.356 117.986 68.2089 118.078C68.0618 118.171 67.9445 118.303 67.8708 118.459C67.7972 118.615 67.7702 118.789 67.7931 118.96C67.7949 118.972 67.7968 118.984 67.7987 118.996C68.0044 119.079 68.2046 119.174 68.3983 119.282C68.5091 119.344 68.6176 119.409 68.7237 119.479C68.857 119.567 68.9603 119.693 69.0201 119.84C69.0799 119.987 69.0933 120.149 69.0586 120.304C69.0239 120.459 68.9427 120.6 68.8257 120.708C68.7087 120.817 68.5613 120.888 68.4028 120.912L68.3866 120.914C68.3749 120.916 68.3648 120.918 68.3532 120.919C68.7046 121.749 69.1977 122.513 69.8111 123.178C70.4096 126.374 72.9801 126.677 75.7297 125.746H75.7314C76.0331 127.043 76.4702 128.306 77.0357 129.513H81.6951C81.7119 129.462 81.7269 129.409 81.7419 129.358C81.3106 129.385 80.8776 129.359 80.4526 129.282C80.7983 128.862 81.144 128.439 81.4897 128.02C81.4974 128.012 81.5047 128.004 81.5114 127.995C81.6868 127.78 81.8638 127.567 82.0392 127.352L82.0393 127.352C82.0486 126.694 81.9721 126.037 81.8119 125.398Z" fill="#F2F2F2"/>
<path d="M74.9085 52.5168C69.6585 52.5168 64.5265 50.9768 60.1613 48.0915C55.7961 45.2062 52.3939 41.1052 50.3848 36.3071C48.3758 31.509 47.8501 26.2293 48.8743 21.1357C49.8985 16.042 52.4266 11.3632 56.1389 7.69092C59.8512 4.01861 64.5809 1.51775 69.73 0.50456C74.8791 -0.508626 80.2162 0.0113769 85.0665 1.99881C89.9169 3.98625 94.0625 7.35185 96.9792 11.67C99.8959 15.9882 101.453 21.065 101.453 26.2584C101.445 33.2201 98.6456 39.8945 93.6693 44.8172C88.693 49.7399 81.946 52.5089 74.9085 52.5168ZM74.9085 0.41353C69.7412 0.41353 64.69 1.92931 60.3936 4.76918C56.0971 7.60905 52.7485 11.6455 50.771 16.368C48.7936 21.0905 48.2762 26.2871 49.2843 31.3005C50.2924 36.3139 52.7807 40.919 56.4345 44.5335C60.0883 48.148 64.7435 50.6095 69.8115 51.6067C74.8795 52.6039 80.1326 52.0921 84.9066 50.136C89.6805 48.1798 93.7609 44.8672 96.6317 40.6171C99.5024 36.3669 101.035 31.37 101.035 26.2584C101.027 19.4063 98.2718 12.837 93.3739 7.99187C88.476 3.14669 81.8352 0.421273 74.9085 0.41353Z" fill="#F2F2F2"/>
<path d="M77.8211 35.7693H72.1779C71.9007 35.7693 71.6349 35.6603 71.4389 35.4665C71.2429 35.2726 71.1328 35.0096 71.1328 34.7355C71.1328 34.4613 71.2429 34.1983 71.4389 34.0045C71.6349 33.8106 71.9007 33.7017 72.1779 33.7017H77.8211C78.0983 33.7017 78.3641 33.8106 78.5601 34.0045C78.7561 34.1983 78.8662 34.4613 78.8662 34.7355C78.8662 35.0096 78.7561 35.2726 78.5601 35.4665C78.3641 35.6603 78.0983 35.7693 77.8211 35.7693Z" fill="#E6E6E6"/>
<path d="M79.1178 65.7737H70.8817C70.4771 65.7737 70.0892 65.6147 69.8032 65.3318C69.5171 65.0488 69.3564 64.665 69.3564 64.2649C69.3564 63.8647 69.5171 63.481 69.8032 63.198C70.0892 62.9151 70.4771 62.7561 70.8817 62.7561H79.1178C79.5223 62.7561 79.9102 62.9151 80.1962 63.198C80.4823 63.481 80.643 63.8647 80.643 64.2649C80.643 64.665 80.4823 65.0488 80.1962 65.3318C79.9102 65.6147 79.5223 65.7737 79.1178 65.7737Z" fill="#23C16B"/>
<path d="M102.529 59.4494H47.4705C46.9799 59.4489 46.5096 59.2558 46.1627 58.9127C45.8158 58.5695 45.6207 58.1043 45.6201 57.619V41.3813C45.6207 40.896 45.8158 40.4307 46.1627 40.0875C46.5096 39.7444 46.9799 39.5513 47.4705 39.5508H102.529C103.019 39.5513 103.49 39.7444 103.837 40.0875C104.184 40.4307 104.379 40.896 104.379 41.3813V57.619C104.379 58.1043 104.184 58.5695 103.837 58.9127C103.49 59.2558 103.019 59.4489 102.529 59.4494Z" fill="#E6E6E6"/>
<path d="M97.1789 58.2149H48.7186C48.228 58.2143 47.7577 58.0213 47.4108 57.6781C47.0639 57.335 46.8687 56.8697 46.8682 56.3844V42.617C46.8687 42.1317 47.0639 41.6665 47.4108 41.3233C47.7577 40.9802 48.228 40.7871 48.7186 40.7866H101.28C101.771 40.7871 102.241 40.9802 102.588 41.3233C102.935 41.6665 103.13 42.1317 103.131 42.617V52.3271C103.129 53.8881 102.501 55.3846 101.386 56.4884C100.27 57.5922 98.7569 58.2131 97.1789 58.2149Z" fill="white"/>
<path d="M80.4629 45.6828H58.3337C58.2071 45.6828 58.0857 45.6331 57.9962 45.5445C57.9067 45.456 57.8564 45.3359 57.8564 45.2107C57.8564 45.0855 57.9067 44.9655 57.9962 44.8769C58.0857 44.7884 58.2071 44.7386 58.3337 44.7386H80.4629C80.5895 44.7386 80.7109 44.7884 80.8004 44.8769C80.8899 44.9655 80.9401 45.0855 80.9401 45.2107C80.9401 45.3359 80.8899 45.456 80.8004 45.5445C80.7109 45.6331 80.5895 45.6828 80.4629 45.6828Z" fill="#23C16B"/>
<path d="M91.6651 47.6137H58.3337C58.2071 47.6137 58.0857 47.564 57.9962 47.4754C57.9067 47.3869 57.8564 47.2668 57.8564 47.1416C57.8564 47.0164 57.9067 46.8964 57.9962 46.8078C58.0857 46.7193 58.2071 46.6696 58.3337 46.6696H91.6651C91.7917 46.6696 91.9131 46.7193 92.0026 46.8078C92.0921 46.8964 92.1424 47.0164 92.1424 47.1416C92.1424 47.2668 92.0921 47.3869 92.0026 47.4754C91.9131 47.564 91.7917 47.6137 91.6651 47.6137Z" fill="#E6E6E6"/>
<path d="M91.6661 49.83H58.3347C58.2719 49.8302 58.2098 49.818 58.1517 49.7944C58.0937 49.7707 58.041 49.736 57.9966 49.6921C57.9522 49.6483 57.9169 49.5962 57.8929 49.5388C57.8688 49.4815 57.8564 49.42 57.8564 49.3579C57.8564 49.2959 57.8688 49.2344 57.8929 49.1771C57.9169 49.1197 57.9522 49.0676 57.9966 49.0238C58.041 48.9799 58.0937 48.9452 58.1517 48.9215C58.2098 48.8978 58.2719 48.8857 58.3347 48.8859H91.6661C91.7925 48.8861 91.9136 48.936 92.0029 49.0245C92.0922 49.113 92.1423 49.2329 92.1423 49.3579C92.1423 49.483 92.0922 49.6029 92.0029 49.6914C91.9136 49.7799 91.7925 49.8298 91.6661 49.83Z" fill="#E6E6E6"/>
<path d="M91.6661 52.0463H58.3347C58.2719 52.0465 58.2098 52.0343 58.1517 52.0107C58.0937 51.987 58.041 51.9523 57.9966 51.9084C57.9522 51.8646 57.9169 51.8125 57.8929 51.7551C57.8688 51.6978 57.8564 51.6363 57.8564 51.5743C57.8564 51.5122 57.8688 51.4507 57.8929 51.3934C57.9169 51.336 57.9522 51.2839 57.9966 51.2401C58.041 51.1962 58.0937 51.1615 58.1517 51.1378C58.2098 51.1142 58.2719 51.102 58.3347 51.1022H91.6661C91.7925 51.1024 91.9136 51.1523 92.0029 51.2408C92.0922 51.3293 92.1423 51.4492 92.1423 51.5743C92.1423 51.6993 92.0922 51.8192 92.0029 51.9077C91.9136 51.9962 91.7925 52.0461 91.6661 52.0463Z" fill="#E6E6E6"/>
<path d="M91.6661 54.2626H58.3347C58.2719 54.2628 58.2098 54.2507 58.1517 54.227C58.0937 54.2033 58.041 54.1686 57.9966 54.1247C57.9522 54.0809 57.9169 54.0288 57.8929 53.9715C57.8688 53.9141 57.8564 53.8526 57.8564 53.7906C57.8564 53.7285 57.8688 53.667 57.8929 53.6097C57.9169 53.5523 57.9522 53.5003 57.9966 53.4564C58.041 53.4126 58.0937 53.3778 58.1517 53.3541C58.2098 53.3305 58.2719 53.3184 58.3347 53.3185H91.6661C91.7925 53.3187 91.9136 53.3686 92.0029 53.4571C92.0922 53.5456 92.1423 53.6655 92.1423 53.7906C92.1423 53.9156 92.0922 54.0355 92.0029 54.124C91.9136 54.2125 91.7925 54.2624 91.6661 54.2626Z" fill="#E6E6E6"/>
<path d="M120.951 127.33L118.714 127.33L117.65 118.795L120.951 118.795L120.951 127.33Z" fill="#A0616A"/>
<path d="M121.03 129.638L114.151 129.638V129.552C114.151 128.849 114.434 128.176 114.936 127.679C115.438 127.182 116.119 126.903 116.829 126.903L118.085 125.96L120.429 126.903L121.03 126.904L121.03 129.638Z" fill="#2F2E41"/>
<path d="M139.238 124.496L137.234 125.479L132.45 118.299L135.408 116.849L139.238 124.496Z" fill="#A0616A"/>
<path d="M140.343 126.53L134.18 129.551L134.142 129.474C133.826 128.844 133.777 128.117 134.004 127.451C134.231 126.786 134.716 126.237 135.352 125.925L136.055 124.528L138.578 124.344L139.116 124.08L140.343 126.53Z" fill="#2F2E41"/>
<path d="M114.325 81.4557C114.325 81.4557 111.779 84.9668 113.617 91.0328C115.455 97.0989 114.423 102.522 114.939 103.61C115.455 104.697 116.493 105.73 115.635 106.554C114.777 107.379 114.325 108.049 115.003 108.273C115.681 108.496 117.94 124.139 117.94 124.139L121.78 124.363C121.78 124.363 123.171 117.096 121.685 111.232C121.685 111.232 122.011 106.975 121.331 105.724C120.651 104.474 120.784 105.601 120.83 104.032C120.856 102.897 121.023 101.769 121.328 100.674C121.554 99.7806 121.685 90.7712 121.685 90.7712L125.424 102.727C125.574 103.139 125.63 103.578 125.588 104.014C125.496 104.63 125.495 105.55 125.609 105.872C125.722 106.194 125.848 106.262 125.785 106.899C125.722 107.535 133.246 120.954 133.246 120.954L136.985 118.473L133.301 106.708C132.936 106.307 132.631 105.856 132.398 105.367C131.946 104.474 131.928 104.424 132.163 103.778C132.398 103.133 132.398 101.875 132.398 101.498C132.398 101.121 132.632 84.0263 129.691 81.5119C126.75 78.9974 114.325 81.4557 114.325 81.4557Z" fill="#2F2E41"/>
<path d="M128.135 54.2584L127.37 52.1033L125.28 50.0357L121.425 49.5804L118.915 51.2127L116.59 53.4795L113.157 81.6698C113.157 81.6698 129.373 87.8543 131.497 82.6642L128.135 54.2584Z" fill="#CCCCCC"/>
<path d="M129.451 54.2584L127.198 52.0303C127.198 52.0303 126.122 66.2702 126.581 67.2717C127.039 68.2732 127.579 68.0176 126.995 68.559C126.412 69.1003 125.785 68.563 126.412 69.5553C126.781 70.1117 126.963 70.7698 126.93 71.4347C126.93 71.4347 130.174 91.637 132.055 91.637C133.936 91.637 135.114 91.0923 135.048 90.5376C134.981 89.9829 133.872 88.6019 134.218 88.2586C134.563 87.9153 135.416 88.1746 134.572 87.5281C133.727 86.8815 133.309 87.0883 133.518 86.2613C133.727 85.4342 132.129 74.7129 132.129 74.7129L131.974 56.8048L129.451 54.2584Z" fill="#3F3D56"/>
<path d="M118.915 51.2127L115.998 51.621L112.53 52.9304C112.53 52.9304 114.114 70.6046 113.783 71.1963C113.453 71.7881 112.865 71.4186 113.368 72.0169C113.871 72.6152 114.323 72.3498 113.783 72.896C113.244 73.4422 112.335 72.7503 112.894 73.7165C113.453 74.6828 110.76 87.9861 111.485 88.6997C112.21 89.4133 114.078 88.9692 114.079 88.4423C114.022 87.8744 113.805 87.3336 113.453 86.8815C113.352 86.767 113.296 86.6201 113.296 86.468C113.296 86.316 113.352 86.1691 113.453 86.0545C113.749 85.7727 113.952 85.4091 114.036 85.0112C114.08 84.6072 114.399 84.1106 114.553 83.7386C114.707 83.3666 118.582 58.1852 118.582 58.1852L118.915 51.2127Z" fill="#3F3D56"/>
<path d="M106.47 65.1292L107.785 64.4497C106.143 62.9842 102.067 60.5863 102.067 60.5863L95.0431 55.9018C94.9403 55.6624 94.7755 55.4539 94.5653 55.2975C94.3552 55.1411 94.1071 55.0422 93.846 55.0107C93.5849 54.9793 93.32 55.0165 93.0781 55.1185C92.8361 55.2205 92.6256 55.3837 92.4678 55.5918C92.3099 55.7999 92.2102 56.0454 92.1787 56.3038C92.1473 56.5621 92.1851 56.824 92.2886 57.0632C92.392 57.3024 92.5573 57.5105 92.7678 57.6664C92.9783 57.8224 93.2267 57.9207 93.4878 57.9515L101.359 64.9278L106.47 65.1292Z" fill="#A0616A"/>
<path d="M116.084 59.9601L116.098 54.2465L112.89 52.7285L104.798 61.2006L104.171 60.7871H102.707L99.1543 64.9223C99.1543 64.9223 101.047 66.0317 101.982 65.5804C102.916 65.1291 102.829 65.7775 102.829 65.7775C102.967 65.9501 103.161 66.0714 103.378 66.1218C103.594 66.1723 103.822 66.1491 104.024 66.0558C104.798 65.7493 106.261 66.5764 106.261 66.5764L116.084 59.9601Z" fill="#3F3D56"/>
<path d="M123.774 48.2679C126.358 48.2679 128.453 46.1956 128.453 43.6393C128.453 41.083 126.358 39.0107 123.774 39.0107C121.19 39.0107 119.095 41.083 119.095 43.6393C119.095 46.1956 121.19 48.2679 123.774 48.2679Z" fill="#A0616A"/>
<path d="M129.422 44.8144C128.98 45.6696 128.387 46.4396 127.671 47.0882C127.466 47.3193 127.204 47.4942 126.91 47.5961C126.762 47.6437 126.603 47.6386 126.458 47.5817C126.314 47.5247 126.195 47.4196 126.121 47.2845L126.034 47.1673C126.285 47.0915 126.521 46.9757 126.735 46.8246C126.84 46.7485 126.926 46.6485 126.985 46.5329C127.044 46.4174 127.074 46.2895 127.073 46.1601C127.066 46.0307 127.008 45.9093 126.912 45.8214C126.815 45.7334 126.688 45.6858 126.557 45.6885C126.265 45.7229 126.004 46.0605 125.742 45.9304C125.53 45.824 125.561 45.5194 125.622 45.2894C125.947 44.0891 125.811 42.2288 125.342 42.1637C124.876 42.0699 124.432 41.8901 124.034 41.6338C123.634 41.3772 123.188 41.1997 122.721 41.1115C122.687 41.1071 122.653 41.1047 122.616 41.1018C122.603 40.8543 122.559 40.6094 122.487 40.3722C122.436 40.6226 122.358 40.867 122.255 41.1011C121.85 41.1557 121.441 41.1762 121.032 41.1622C120.597 41.1122 119.345 42.1162 119.335 41.9781C119.322 41.7306 119.278 41.4856 119.206 41.2485C119.155 41.4989 119.077 41.7432 118.974 41.9774C118.969 41.9869 118.967 41.995 118.962 42.0046C118.829 41.6836 118.791 41.3246 118.794 41.5927C118.515 39.8871 119.069 38.8601 120.484 37.8487C120.767 37.6256 121.102 37.4772 121.459 37.4173C121.637 37.3892 121.819 37.4069 121.988 37.4687C122.157 37.5305 122.307 37.6343 122.424 37.7702C122.968 37.4859 123.578 37.3505 124.192 37.378C124.806 37.4055 125.401 37.595 125.916 37.9267C126.934 38.6013 127.737 39.0501 127.602 40.2563C128.566 40.3482 129.381 41.1147 129.686 42.0231C129.988 42.933 129.831 43.9484 129.422 44.8144Z" fill="#2F2E41"/>
<path d="M135.394 68.9325L132.038 68.4569C130.902 70.3349 130.499 75.3334 130.499 75.3334L127.214 83.0576C126.996 83.2038 126.821 83.404 126.707 83.6383C126.592 83.8726 126.542 84.1325 126.562 84.392C126.581 84.6514 126.669 84.9013 126.817 85.1163C126.965 85.3314 127.168 85.504 127.405 85.617C127.642 85.7299 127.905 85.7791 128.167 85.7596C128.429 85.7401 128.682 85.6526 128.899 85.5059C129.116 85.3592 129.29 85.1585 129.404 84.9239C129.518 84.6894 129.568 84.4294 129.548 84.1699L134.942 75.1793L135.394 68.9325Z" fill="#A0616A"/>
<path d="M127.666 57.4179L129.088 55.4799L131.973 56.8058L134.372 65.9596C134.372 65.9596 136.123 67.0873 135.75 67.8828C135.376 68.6783 135.177 69.3203 135.564 69.7761C135.95 70.2319 137.075 70.2654 136.237 71.0087C135.399 71.7519 136.116 73.6939 136.116 73.6939L135.313 75.467L130.297 75.2603L127.666 57.4179Z" fill="#3F3D56"/>
<path d="M11.6495 85.8082C11.9662 85.5625 12.1733 85.2042 12.227 84.8096C12.2807 84.4151 12.1766 84.0153 11.9369 83.6955C11.8872 83.6313 11.8321 83.5712 11.7723 83.516L13.9143 78.6231L11.7869 76.6744L9.58527 83.6908C9.37281 83.9538 9.25433 84.2789 9.24829 84.6154C9.24225 84.952 9.34901 85.281 9.5519 85.5513C9.66885 85.7039 9.81505 85.8323 9.98215 85.9291C10.1492 86.0258 10.334 86.0891 10.5258 86.1153C10.7176 86.1414 10.9127 86.1299 11.1001 86.0815C11.2874 86.033 11.4632 85.9485 11.6176 85.8328C11.6283 85.8248 11.639 85.8166 11.6495 85.8082Z" fill="#FFB6B6"/>
<path d="M24.093 54.0675C24.093 54.0675 22.5075 51.0858 18.8293 54.3059C15.1512 57.5259 10.8048 73.6439 10.8892 74.2498C10.9736 74.8557 11.8726 74.6161 10.7355 75.4885C9.59839 76.3609 8.96966 75.5771 9.59838 76.3609C10.2271 77.1448 11.6331 77.9752 10.3882 78.0918C9.1433 78.2084 13.707 80.1507 13.707 80.1507C13.707 80.1507 14.4248 79.9802 14.645 78.3417C14.7687 77.4215 14.3496 76.8989 15.0874 76.7456C15.8252 76.5922 15.1336 74.928 15.2399 74.6661C15.3461 74.4043 21.2375 62.9676 21.2375 62.9676L24.093 54.0675Z" fill="#23C16B"/>
<path d="M31.3346 126.889L33.9978 126.889L35.265 116.726L31.334 116.726L31.3346 126.889Z" fill="#FFB6B6"/>
<path d="M31.2401 129.638L39.4308 129.638V129.535C39.4307 128.699 39.0948 127.897 38.497 127.305C37.8991 126.714 37.0883 126.382 36.2428 126.381H36.2426L34.7464 125.259L31.955 126.382L31.24 126.382L31.2401 129.638Z" fill="#2F2E41"/>
<path d="M12.665 122.043L14.8438 123.558L21.79 115.966L18.574 113.729L12.665 122.043Z" fill="#FFB6B6"/>
<path d="M10.99 124.238L17.6902 128.898L17.7498 128.814C18.2361 128.13 18.4277 127.283 18.2826 126.459C18.1374 125.635 17.6673 124.902 16.9757 124.42L16.4046 122.65L13.4682 121.981L12.8833 121.574L10.99 124.238Z" fill="#2F2E41"/>
<path d="M20.7216 76.3284L20.5002 76.7961C19.0455 79.8704 18.6736 83.3072 19.2389 86.6553C19.2809 86.7859 19.2729 86.9274 19.2163 87.0525C18.8657 87.4593 19.4158 89.2267 19.7311 90.2136L20.0153 91.9587C20.0153 91.9587 19.544 93.5795 20.2598 93.4604C20.9756 93.3412 19.9097 95.07 20.5925 95.5031L22.3636 106.379L14.9744 118.427L17.7111 122.352L28.6581 108.41L28.795 95.8209L30.437 105.973L30.5739 121.946L35.5527 121.423L37.3769 105.937L35.6369 84.5201L32.9001 75.2343L20.7216 76.3284Z" fill="#2F2E41"/>
<path d="M24.1427 48.4456L28.1706 48.6354L30.0967 51.927C30.9508 52.1805 31.7365 52.6205 32.3957 53.2146C33.0549 53.8086 33.5709 54.5415 33.9055 55.3592L35.1597 58.4245L33.7329 76.1475C33.7329 76.1475 33.4469 77.2195 33.9735 77.063C34.5001 76.9065 34.2855 78.2499 34.2855 78.2499L36.2263 85.6344L18.5804 84.1165L19.5602 76.2926C19.5602 76.2926 18.1979 76.3361 19.1558 75.3885C20.1136 74.441 20.5795 74.7428 19.6593 73.6226C18.7391 72.5024 18.6023 71.6902 18.6023 71.6902L18.1918 66.1403L17.515 58.3296C17.4076 57.0902 17.6133 55.8439 18.1136 54.7026C18.6139 53.5614 19.3932 52.5611 20.3812 51.7917L24.1427 48.4456Z" fill="#23C16B"/>
<path d="M26.2311 47.5317C29.0522 47.5317 31.3392 45.2694 31.3392 42.4786C31.3392 39.6879 29.0522 37.4255 26.2311 37.4255C23.41 37.4255 21.123 39.6879 21.123 42.4786C21.123 45.2694 23.41 47.5317 26.2311 47.5317Z" fill="#FFB6B6"/>
<path d="M24.2573 47.1175C25.7231 47.0699 25.8563 46.6869 27.3221 46.6393C27.7888 46.6242 28.3396 46.5609 28.5652 46.1564C28.6309 46.0049 28.6602 45.8404 28.6507 45.6758C28.6412 45.5112 28.5932 45.351 28.5106 45.2079C28.3433 44.9237 28.1925 44.6303 28.059 44.3291C27.9785 44.093 27.9574 43.841 27.9975 43.5949C28.0376 43.3489 28.1376 43.1162 28.289 42.917C28.4403 42.7177 28.6384 42.558 28.8662 42.4515C29.094 42.345 29.3445 42.2949 29.5962 42.3057C30.0423 42.3248 30.4612 42.5323 30.9061 42.5702C31.5161 42.6222 32.8652 40.6296 32.5843 40.0914C32.3109 39.5674 31.7606 39.1721 31.6742 38.5887C31.6176 38.2072 31.7768 37.8281 31.7986 37.443C31.8308 36.8721 30.3679 38.1594 30.6358 37.6527C31.293 36.4098 25.0997 34.869 24.0801 36.4258C23.699 37.0077 23.0199 36.968 22.4146 37.3174C22.0178 37.5464 21.016 38.3366 20.7883 38.829C20.579 39.3316 20.4801 39.8723 20.4982 40.4155C20.489 42.9418 20.8781 45.2655 22.9379 46.7588" fill="#2F2E41"/>
<path d="M38.7588 85.591C38.4576 85.327 38.2724 84.9571 38.2426 84.5601C38.2128 84.163 38.3408 83.7702 38.5994 83.4651C38.6529 83.4039 38.7115 83.3472 38.7745 83.2955L36.9316 78.2849L39.1728 76.4654L40.9471 83.5993C41.1433 83.8743 41.242 84.2058 41.2277 84.5421C41.2134 84.8784 41.087 85.2006 40.8682 85.4583C40.7422 85.6038 40.5885 85.7233 40.4159 85.8101C40.2433 85.8968 40.055 85.949 39.862 85.9638C39.6689 85.9786 39.4748 85.9556 39.2908 85.8962C39.1067 85.8367 38.9363 85.742 38.7892 85.6174C38.7789 85.6088 38.7688 85.5999 38.7588 85.591Z" fill="#FFB6B6"/>
<path d="M28.2529 53.1721C28.2529 53.1721 30.0156 50.2893 33.4928 53.7208C36.9701 57.1524 40.3361 73.4982 40.2153 74.0981C40.0945 74.698 39.2115 74.4056 40.294 75.3437C41.3764 76.2817 42.0513 75.5363 41.3764 76.2817C40.7015 77.027 39.2479 77.7729 40.4836 77.9628C41.7192 78.1527 37.0465 79.8221 37.0465 79.8221C37.0465 79.8221 36.3402 79.6095 36.2193 77.961C36.1513 77.035 36.6012 76.5382 35.874 76.3415C35.1467 76.1449 35.9375 74.5245 35.8473 74.2568C35.757 73.9891 30.5663 62.2249 30.5663 62.2249L28.2529 53.1721Z" fill="#23C16B"/>
<path d="M79.0783 25.6941C79.0785 26.5121 78.8335 27.3119 78.3742 27.9922C77.915 28.6725 77.2621 29.2028 76.4981 29.5161C75.7342 29.8293 74.8935 29.9115 74.0824 29.7521C73.2712 29.5927 72.5261 29.1989 71.9412 28.6206C71.3563 28.0423 70.9579 27.3054 70.7964 26.5031C70.6348 25.7008 70.7174 24.8691 71.0337 24.1132C71.35 23.3573 71.8857 22.7112 72.5732 22.2566C73.2607 21.8019 74.069 21.5591 74.896 21.5589C75.4453 21.5582 75.9893 21.6646 76.4969 21.8722C77.0045 22.0797 77.4658 22.3842 77.8542 22.7683C78.2427 23.1524 78.5508 23.6086 78.7608 24.1106C78.9709 24.6126 79.0788 25.1507 79.0783 25.6941Z" fill="#23C16B"/>
<path d="M74.9894 26.2934C75.7975 26.2934 76.4525 25.6454 76.4525 24.8461C76.4525 24.0468 75.7975 23.3988 74.9894 23.3988C74.1814 23.3988 73.5264 24.0468 73.5264 24.8461C73.5264 25.6454 74.1814 26.2934 74.9894 26.2934Z" fill="white"/>
<path d="M76.5571 26.8105H73.422C73.228 26.8108 73.0421 26.8871 72.9049 27.0227C72.7678 27.1584 72.6906 27.3423 72.6904 27.5342C72.7351 28.154 72.833 28.7689 72.983 29.3723C73.6118 29.6928 74.3125 29.8501 75.0195 29.8295C75.7266 29.8089 76.4167 29.611 77.0253 29.2544C77.1595 28.6889 77.2476 28.1137 77.2886 27.5342C77.2884 27.3423 77.2113 27.1584 77.0741 27.0227C76.937 26.8871 76.7511 26.8108 76.5571 26.8105Z" fill="white"/>
<path d="M1.10086e-06 129.754C-9.63122e-05 129.786 0.00627215 129.818 0.0187379 129.848C0.0312036 129.878 0.0495192 129.905 0.0726359 129.928C0.0957526 129.951 0.123213 129.969 0.153435 129.981C0.183657 129.994 0.216045 130 0.248736 130H149.751C149.817 130 149.881 129.974 149.927 129.928C149.974 129.882 150 129.819 150 129.754C150 129.689 149.974 129.626 149.927 129.58C149.881 129.534 149.817 129.508 149.751 129.508H0.248736C0.216045 129.508 0.183656 129.514 0.153435 129.526C0.123214 129.539 0.0957556 129.557 0.0726391 129.58C0.0495227 129.603 0.031204 129.63 0.0187379 129.66C0.00627175 129.69 -9.52025e-05 129.722 1.10086e-06 129.754Z" fill="#CCCCCC"/>
</g>
<defs>
<clipPath id="clip0_1_1276">
<rect width="150" height="130" fill="white"/>
</clipPath>
</defs>
</svg>
